<svg xmlns="http://www.w3.org/2000/svg" xmlns:xlink="http://www.w3.org/1999/xlink" viewBox="0 0 544.02 559.27"><defs><style>.cls-1{fill:url(#Ikke-navngivet_forløb_93);}.cls-2{fill:url(#Ikke-navngivet_forløb_620);}.cls-3{opacity:0.1;}.cls-4{fill:url(#Ikke-navngivet_forløb_604);}.cls-12,.cls-5{fill:#fff;}.cls-5{opacity:0.16;}.cls-6{fill:url(#Ikke-navngivet_forløb_477);}.cls-7{fill:url(#Ikke-navngivet_forløb_556);}.cls-8{fill:#e6a114;}.cls-9{fill:#c47400;}.cls-10{fill:#0b0b09;}.cls-11{opacity:0.15;}.cls-12{opacity:0.2;}</style><linearGradient id="Ikke-navngivet_forløb_93" x1="17.21" y1="104.57" x2="525.64" y2="398.12" gradientUnits="userSpaceOnUse"><stop offset="0" stop-color="#e6a114"/><stop offset="0.27" stop-color="#e49e13"/><stop offset="0.48" stop-color="#dc940e"/><stop offset="0.66" stop-color="#d08407"/><stop offset="0.79" stop-color="#c47400"/></linearGradient><radialGradient id="Ikke-navngivet_forløb_620" cx="157.33" cy="126.78" r="106.4" gradientUnits="userSpaceOnUse"><stop offset="0" stop-color="#a33"/><stop offset="0.2" stop-color="#a53131"/><stop offset="0.43" stop-color="#972d2d"/><stop offset="0.68" stop-color="#7f2525"/><stop offset="0.94" stop-color="#5f1b1b"/><stop offset="1" stop-color="#561818"/></radialGradient><radialGradient id="Ikke-navngivet_forløb_604" cx="383.67" cy="126.63" r="106.55" gradientUnits="userSpaceOnUse"><stop offset="0" stop-color="#036031"/><stop offset="0.28" stop-color="#035b2f"/><stop offset="0.61" stop-color="#034d2a"/><stop offset="0.96" stop-color="#023622"/><stop offset="1" stop-color="#023221"/></radialGradient><radialGradient id="Ikke-navngivet_forløb_477" cx="396.97" cy="387.82" r="126.88" gradientUnits="userSpaceOnUse"><stop offset="0" stop-color="#0e5777"/><stop offset="0.25" stop-color="#0e5372"/><stop offset="0.54" stop-color="#0e4864"/><stop offset="0.85" stop-color="#0f364d"/><stop offset="1" stop-color="#0f2b3f"/></radialGradient><radialGradient id="Ikke-navngivet_forløb_556" cx="142.28" cy="386.21" r="126.03" gradientUnits="userSpaceOnUse"><stop offset="0" stop-color="#e5d93c"/><stop offset="0.17" stop-color="#e3d439"/><stop offset="0.38" stop-color="#dbc631"/><stop offset="0.6" stop-color="#cfae24"/><stop offset="0.83" stop-color="#bf8e11"/><stop offset="1" stop-color="#b07000"/></radialGradient></defs><g id="Lag_3" data-name="Lag 3"><path class="cls-1" d="M41.38,77.59c4.36-4.2,4.79-6,9.08-9.08,3.88-2.81,6.91-3.83,10.9-5.45C64,62,73.84,58,81.34,53.07c2.29-1.5,2.52-1.88,18.16-17.25,12.22-12,12.31-12,13.63-13.62,4.15-5.13,6.54-9.23,12.71-15.44C131.3,1.26,133.26.62,134,.4c5.41-1.54,10.43,1.51,18.16,6.36,5.15,3.22,12.93,8.1,20,17.25,2.91,3.77,3.57,5.51,9.08,12.72,5.34,7,7.29,8.69,9.09,10,3.14,2.28,6.37,3.37,12.71,5.45a143.57,143.57,0,0,0,17.25,4.54c9.36,1.84,9.74,1,17.26,2.73,8.2,1.86,12.29,2.79,16.34,5.45,8.48,5.56,9,12.5,14.53,12.71,2.25.08,4.53-1.46,9.08-4.54,5.5-3.71,6.64-5.85,10-8.17,3.73-2.58,8-3.27,16.35-4.54,13.95-2.13,15.83-.38,25.43-2.73a52.28,52.28,0,0,0,14.53-5.45c1.89-1.07,6.1-3.65,16.34-14.53,6.49-6.89,6.21-7.36,13.63-15.43C384.45,10.54,388,8.25,391,6.76c3.64-1.83,8.45-4.23,14.53-3.63,6.31.62,10.35,4.12,18.16,10.89a114.57,114.57,0,0,1,14.53,15.44c5.57,6.91,5.18,7.69,9.08,11.81,1.83,1.92,5.79,5.83,15.44,11.8,8.91,5.51,11.15,5.67,22.7,11.81,11.73,6.23,17.59,9.34,21.8,13.62A51.81,51.81,0,0,1,520,101.2c4,14.06,1.43,25.72,0,31.79-1.84,7.84-4.68,19.92-15.44,30-3,2.86-16.09,15-30.87,12.72-12.84-2-19.69-13.79-24.52-10.9-1.48.89-2,2.72-2.72,10.9-1.33,15.71-.91,21.79-.91,21.79,1.41,20.74,2.11,31.1,3.63,38.14,6.07,28.19,22.05,47.68,33.6,61.76,16.21,19.76,24.32,29.65,39,37.23,8.88,4.57,17.47,7,20.89,15.44,3.91,9.67-1.66,20.66-4.54,26.33-2.33,4.57-5.75,9.78-21.8,24.52-20.94,19.24-21.88,16.58-26.34,23.61-10.15,16-6.22,31.17-14.53,33.6-4.06,1.2-9-1.28-13.62-3.63-8.1-4.09-9.66-8.58-13.62-8.17-4.4.45-6.31,6.41-10,12.71s-9.36,11.38-20.88,21.8c-6.77,6.11-14.63,10.74-63.57,28.15-35.42,12.59-40.53,13.45-48.13,20.88A261.09,261.09,0,0,1,284.76,548c-11.6,9.09-14.93,10.16-18.16,10-6.83-.37-9.67-6.09-20.89-16.35,0,0-6-5.44-20-15.44-21.69-15.46-35.89-10.7-62.66-22.7-15.36-6.89-24.95-11.51-33.6-21.8-6-7.17-6.66-11.29-14.53-18.16C103.86,453.87,92.41,451,93.15,448.1c.54-2.11,7.16-2.26,7.26-1.81s-10.1,1.27-21.79,8.17c-7.31,4.31-8,6.78-10.9,6.36-4.95-.72-6.29-8.17-15.44-28.15-5.36-11.72-7.22-14.22-8.17-15.44C37.67,409,31.36,407,25,402.7,6.2,390-5.16,362.47,2.33,349.12c1.8-3.2,4.08-4.52,8.18-7.27,13.4-9,24.76-20.65,37.23-30.87,26.64-21.83,40.18-52,40.87-53.58,0,0,11.81-27,11.8-66.29a82.9,82.9,0,0,0-.91-11.81c-2.06-12.37-2.92-13.4-3.63-13.62C93.57,165,91.32,169,87.7,172c-10.59,8.82-27.73,4.5-30.88,3.63-18.12-5-26.21-22.06-30-30-7.5-15.8-6.25-29.9-5.44-39,.67-7.61,1.24-13.25,5.44-18.16C30.88,83.79,34,84.72,41.38,77.59Z"/><path class="cls-2" d="M53.19,65.79c-.3-3.06,10.06-4.48,25.43-13.63C86.45,47.5,90.48,45.1,95,40.36c9.76-10.34,9.75-19.23,18.17-21.8,2-.6,5-.4,10.89,0,6.27.43,11.58.79,16.35,2.73,2.07.84,5.94,2.74,16.34,16.34,10,13,9.17,14.88,14.53,20,4.37,4.15,10.24,6.76,21.8,11.81C212.13,77.75,228.46,83,228.46,83a147.07,147.07,0,0,1,19.07,8.17c6.31,3.2,8.42,4.81,10,7.27,2.59,4.08,2.1,8,1.81,16.34-.32,9.45-.11,17.08,0,20,.69,16.95,4.46,23.67,0,28.15-2.18,2.19-5.39,2.92-8.12,3.53-4.54,1-6-.07-12,0-4.17.05-7.74.74-14.87,2.12-7.51,1.46-7.71,2.06-11.34,2.13-3.81.06-5.54-.57-7.08.71-1.9,1.58-1.68,4.57-1.42,9.2.29,5,.38,9.93.71,14.88.84,12.53-.45,11.85.71,19.12.75,4.66,1,6.88,1.42,11.34.55,5.48.56,7.51-.71,8.5-1.54,1.19-3.63-.18-7.79-.71s-6.81.23-9.92.71c-7.43,1.15-14.34,1-26.92.71-8.71-.19-8.74-.64-17.7-.71h-22c-4.49.29-6,.91-7.09,0-1.51-1.32-.25-4.4,1.07-9.92.94-4,1.29-8.05,2.12-12,1.79-8.62,2-16.68,2.48-30.1s.64-20,0-26.21a121.37,121.37,0,0,0-16.65-48.52A115.24,115.24,0,0,0,91.48,90.33c-6.68-7.47-12.49-14-22-18.41S53.43,68.21,53.19,65.79Z"/><polygon class="cls-3" points="253.04 159.4 238.49 161.39 225.56 161.39 215.62 161.39 199.53 165.31 195.28 172.59 195.28 197.08 195.28 233.09 230.7 231.48 260.09 197.08 260.09 159.4 253.04 159.4"/><path class="cls-4" d="M282,100.82c-1.38,2.85-.91,5.4-.71,8.15.36,4.94-.55,4.23-1.06,13.1-.35,6.1.2,4.78.35,19.48.06,5.81,0,9.67.36,16.29,0,1-.91,3.52.35,5.67a7.19,7.19,0,0,0,3.9,2.83c2.77,1,4,.32,9.56.36,3.26,0,3,.27,7.44.35,3.89.07,4.18-.12,6.73,0,3.52.17,3.39.56,8.14,1.06,5.59.6,8.38.89,10.27.71s3.16-.49,4.25.35,1.28,2.56,1.42,4.61c.67,9.75.81,6.33.71,8.85-.7,17.3-.76,18.17-.71,20.54.1,5.24.48,5.71.3,10a61.62,61.62,0,0,1-1,10.95,26,26,0,0,0-.71,6c0,2.92.07,3.5.36,3.9,1.2,1.67,4.16,1.22,7.44,1.06,3.89-.19,7.78.65,11.68.71,18,.28,26.92.42,30.46.35,12.84-.24,24.57-.91,30.11-.71,1.88.07,3.77,0,5.66,0,3.49.07,4.21.19,5-.35,1.56-1.13,1.38-3.78,1.06-7.79-.89-11.1-1.06-12-1.06-12-2.09-11.36-3.14-17-3.19-17.36-.36-2.35-.48-3.93,0-22.66.52-19.78.77-22.48,1.42-26.21a106.32,106.32,0,0,1,4.6-17.36,133.38,133.38,0,0,1,9.57-20.89,129.61,129.61,0,0,1,13.45-21.25c5.76-7.25,9.65-10.35,12.05-12a62.55,62.55,0,0,1,9.2-5.32c3.66-1.74,5.49-2.62,8.15-3.18,4.81-1,9.13-1.09,9.63-2.36s-3.33-2.53-5-3.67c-2.4-1.61-3-1.47-6.49-3.3s0,0-8-5.67c-3.39-2.39-6.3-.72-8.68-3.3s-6.86-4.87-7.25-5.43c-6.05-8.74-8.25-9.19-18.3-20.55-3-3.43-3.31-5-6.77-6.45s-8.5-1-10.35-1c-4.45.08-7.66,1.36-11.33,2.83A49.88,49.88,0,0,0,395,25.38,53.85,53.85,0,0,0,384.74,35c-2.07,2.34-2.82,3.47-8.5,11.33-5.45,7.54-8.19,11.32-8.86,12a50.76,50.76,0,0,1-15.93,11.33c-3.6,1.73-8.54,3-18.42,5.67-9.3,2.47-12.18,2.85-19.48,5.31a80.39,80.39,0,0,0-11.33,4.61,85.78,85.78,0,0,0-9.92,6,45.06,45.06,0,0,0-6.37,5C284,98.07,282.85,99.14,282,100.82Z"/><polygon class="cls-3" points="285.79 159.4 300.33 161.39 313.27 161.39 323.2 161.39 339.29 165.31 343.54 172.59 343.54 197.08 343.54 233.09 308.13 231.48 278.74 197.08 278.74 159.4 285.79 159.4"/><path class="cls-5" d="M512.61,357.7s-.71.8-2,2.24c-10,11.45-55,62.92-53.76,62.92,1.41,0,8,3.78,8,3.78l8-7.55,3.31-7.56,3.78-5.19,9.37-9.92s7.15-8.67,8.57-8.82,4.25-3.46,4.25-3.46l6.14-1.89c3.78-4.72,5.67-9.44,7.08-11.33s2.68-9.92,2.68-9.92"/><polyline class="cls-5" points="438.47 404 442.72 407.78 445.55 411.09 442.01 415.81 435.16 425.25 427.37 436.59 417.22 449.34 406.36 461.14 392.66 473.42 377.55 483.34 363.6 488.53 345.91 495.14 325.58 499.87 302.99 509.78 279.52 525.13 285.47 505.53 435.16 404"/><path class="cls-6" d="M332.67,253.6c1.7-2.51,5.89-1.07,17.71-.71,8.22.26,7.36-.33,17.51-.13,9.12.18,12.58.73,24.28.13,9.91-.5,20.18,2.23,29.75-.35.68-.18,3.15-.9,5,.35s2,3.85,2.13,5.32c.13,1.21,2,5.29,5.66,13.46a125.58,125.58,0,0,0,8.5,15.93c5,7.73,9.74,12.71,16.65,19.84,6.14,6.33,5.28,4.78,14.87,14.16,11.7,11.44,18.85,19.47,25.15,23.73,2.66,1.8,5.14,3.85,7.79,5.67a28.89,28.89,0,0,1,3.9,3.19A11.31,11.31,0,0,1,514,357c1.25,2.82-.68,6.27-2.13,8.85a36.38,36.38,0,0,1-3.9,5.32c-2.07,2.55-3.75,4.34-5.66,6.37a67.53,67.53,0,0,1-5.67,5.67c-2.38,1.95-3,1.93-6.73,4.6a70.79,70.79,0,0,0-6.37,5,53.69,53.69,0,0,0-7.44,8.5,65.2,65.2,0,0,0-7.44,11.33c-1.12,2.28-2.42,4.46-3.54,6.73-1.55,3.14-2.19,4.73-3.54,5-.9.15-1.39-.42-3.9-2.12-3.18-2.17-3-1.69-5.66-3.55a56.17,56.17,0,0,1-5.32-4.25c-3.47-3.1-4.1-4.38-6-4.6a6,6,0,0,0-3.89,1.06c-2.42,1.62-2.44,4.12-4.25,8.15a57.06,57.06,0,0,1-3.9,6.37A130.8,130.8,0,0,1,420.86,436c-7,8.81-10.49,13.22-11.69,14.52-4.71,5.14-8.47,8.26-15.58,14.17-8.57,7.11-12.85,10.67-17,13.1-6.27,3.67-13,5.87-26.56,10.27-8.67,2.82-9.69,2.77-16.65,5.31-1.88.69-7,2.82-17.35,7.09-8.51,3.51-11.14,4.63-14.88,6.73-2,1.13-4.07,2.41-8.14,4.95-4.88,3.05-5.82,3.78-6.73,4.61-4.25,3.85-4.71,6.91-5.67,6.73-2.25-.43-.43-17.28.35-41.44.08-2.47.29-9.1.36-17.71,0-4.08.08-14-.36-32.23-.4-16.88-.62-15.23-.7-23-.13-10.52.3-10.38,1.41-40.37,0,0,1.08-29.09.36-38.61-.2-2.59.06-5.22-.36-7.79-.28-1.7-.58-2.71,0-3.54,1.11-1.57,4.36-1,6.38-.71,4.91.69,9.92-.14,14.87,0,16.28.46,14.06-.13,17.71.36,6.21.82,8.65,2,10.63.35s1.56-4.22,1.41-10.63c0-1.62.1-7.93.36-20.54.09-4.69.22-7.18.35-14.87.11-6.34.07-7.41,0-8.5C332.91,256.71,331.53,255.3,332.67,253.6Z"/><polygon class="cls-3" points="289.33 327.08 302.48 325.06 314.17 327.08 323.15 327.08 336.47 323.43 341.53 313.73 341.53 288.93 341.53 252.47 309.52 254.1 282.97 288.93 282.97 327.08 289.33 327.08"/><path class="cls-5" d="M28.59,356.31l2,2.24c10,11.45,55,62.93,53.76,62.93-1.41,0-8,3.78-8,3.78l-8-7.56L65,410.14,61.17,405,51.8,395s-7.15-8.67-8.57-8.82S39,382.76,39,382.76l-6.14-1.89c-3.78-4.73-5.67-9.45-7.08-11.34s-2.68-9.91-2.68-9.91"/><polyline class="cls-5" points="102.73 404 98.48 407.78 95.65 411.09 99.19 415.81 106.03 425.25 113.83 436.59 123.98 449.34 134.84 461.14 148.53 473.42 163.65 483.34 175.92 490.89 195.28 495.14 215.62 499.87 231.76 506.95 258.93 521.69 255.73 505.53 106.03 404"/><path class="cls-7" d="M204.46,253.25c2.17,1.52,2.84,4.47,3.19,6,.51,2.24.18,3.41,0,7.44-.1,2.2-.06,4.06,0,7.79.07,4.26.29,4.57.71,12a106.18,106.18,0,0,1,.35,10.63c-.26,4.53-.86,5.07-.7,8.85.13,3.31.64,4.11.35,7.08-.2,2-.55,2.82,0,3.54s1.68.9,7.08.36c4-.4,4.72-.62,6.73-.71a48.4,48.4,0,0,1,6.73.35,102.21,102.21,0,0,0,13.46,0c2.83-.14,5.67-.16,8.5-.35,3.28-.22,5.07-.45,6.37.71s1.38,3,1.42,4.6q.36,12.72.36,12.75c-1.35,9-.08,18.19-.36,27.27-.38,12.29.2,12.89.71,41.44.19,10.38.43,23.75.35,40.38-.08,20.08-.55,25.67-.7,49.58-.08,11.83,2.47,26.34,0,26.92-1.13.26-2.08-2.6-6-6-3.63-3.15-7-4.38-10.27-5.67-10.4-4.14-10.57-5.51-20.54-9.56-20.49-8.33-26.46-5.26-43.91-12.75a111.93,111.93,0,0,1-20.55-11.69c-4.84-3.35-24.65-17.29-37.89-38.61-5.52-8.87-13.85-16.14-17.71-25.85-.25-.63-1.38-3.56-2.83-3.54-1.19,0-1.76,2-3.19,4.25-1,1.64-3.19,3.48-7.44,7.08-7.19,6.1-8.23,6.12-8.85,6-2.86-.44-4.31-4.6-5.32-7.08C69.14,403.26,57.89,391,48.63,385c-6.08-3.92-9.47-3.93-13.1-8.86-2.92-3.95-2.15-5.85-6.38-11.68-2.93-4-5.13-5.65-4.6-7.79.46-1.88,2.58-2.46,6-4.25,2.22-1.16,5.14-3.38,11-7.8,2.9-2.19,5-4.1,11.68-10.62,7-6.86,11.77-11.72,15.23-15.23,17.39-17.6,17.13-16.24,20.9-21.25,3.9-5.19,7.08-10.49,12-18.77,3-4.93,5.2-7.35,6.73-11.69,1.05-3,2.6-5.77,3.19-8.85.32-1.69.47-3.33,1.77-4.25s2.64-.56,4.6-.36c2.7.29,5.44-.13,8.15,0,6.25.3,12.51.21,18.77.36,16.23.39,19.21.42,23.37.35,4.45-.07,5.63-.29,10.63-.35,10.36-.14,9.9.48,14.17,0C199.55,253.18,201.93,251.47,204.46,253.25Z"/><polygon class="cls-3" points="253.61 324.38 240.46 322.43 228.78 324.38 219.8 324.38 206.47 320.84 201.41 311.45 201.41 287.44 201.41 252.15 233.42 253.73 259.98 287.44 259.98 324.38 253.61 324.38"/><path class="cls-8" d="M204.79,173,225.71,170l20-3.19s26.71-2,29.55-1.89,25.5,1.54,25.5,1.54L331.26,169l2.56,4V317.35H283.09l-53.83-.71-20.55.71L204.46,177.1Z"/><path class="cls-9" d="M91.4,155.53c3.08-5.21-.79-12.94-4.25-19.83-1-1.93-3.71-5.78-9.2-13.46s-6.85-9.15-9.21-10.63a25.43,25.43,0,0,0-12-3.54,23.77,23.77,0,0,0-11.34,1.42c-2.44,1-6.4,2.59-8.5,6.37-1.94,3.51-1.06,7.54.71,15.59,1.5,6.79,2.24,10.19,5,14.16a30,30,0,0,0,9.21,8.5,39.38,39.38,0,0,0,14.87,5.67C70.34,160.4,86.89,163.18,91.4,155.53Z"/><path class="cls-9" d="M449.11,152.7c-1-3.37.76-7.25,4.25-14.88,3.05-6.64,4.57-10,7.79-14.17a50.42,50.42,0,0,1,12.05-11.33c4.87-3.21,8.7-5.72,14.16-5.67,1.35,0,7.18.08,11.34,4.25,3.6,3.62,3.86,8.22,4.25,14.88.33,5.88.69,12-2.84,18.42-2.94,5.35-7.1,8.21-10.62,10.62a43.5,43.5,0,0,1-14.17,6.38c-5.65,1.38-11.6,2.83-17.71,0C456.11,160.5,450.63,158,449.11,152.7Z"/><path class="cls-10" d="M220.09,298.7a10,10,0,0,1,1.95-6.91,9.63,9.63,0,0,1,3.71-2.83,17.55,17.55,0,0,1,5.49-1.06h0V203.25c-.66.11-6.81,1-11.33-3.54a13.32,13.32,0,0,1-2.83-14.17h36.51v12.4h-5v34.71h20.54v25.5h-20v30.28h8.32v13.1H220.62Z"/><path class="cls-10" d="M318.19,298.7a10,10,0,0,0-1.95-6.91,9.63,9.63,0,0,0-3.71-2.83A17.55,17.55,0,0,0,307,287.9h0V203.25c.66.11,6.81,1,11.33-3.54a13.32,13.32,0,0,0,2.83-14.17H284.69v12.4h5v34.71H269.14v25.5h20v30.28h-8.32v13.1h36.83Z"/><path class="cls-11" d="M220.09,307.31a10,10,0,0,1,1.95-6.9,9.62,9.62,0,0,1,3.71-2.84,17.55,17.55,0,0,1,5.49-1.06h0V211.87c-.66.1-6.81.95-11.33-3.55a13.3,13.3,0,0,1-2.83-14.16h36.51v12.39h-5v34.71h20.54v25.5h-20V297h8.32v13.11H220.62Z"/><path class="cls-11" d="M318.19,307.31a10,10,0,0,0-1.95-6.9,9.62,9.62,0,0,0-3.71-2.84,17.55,17.55,0,0,0-5.49-1.06h0V211.87c.66.1,6.81.95,11.33-3.55a13.3,13.3,0,0,0,2.83-14.16H284.69v12.39h5v34.71H269.14v25.5h20V297h-8.32v13.11h36.83Z"/></g><g id="highlights"><polygon class="cls-12" points="375.88 19.14 449.24 93.12 460.7 81.23 385.09 11.35 375.88 19.14"/><polygon class="cls-12" points="76.12 78.68 87.45 85.88 166.92 19.85 157.71 11.35 76.12 78.68"/><polygon class="cls-12" points="280.14 164.94 280.61 171.44 326.65 174.98 328.78 177.46 333.82 223.79 331.61 169.17 280.14 164.94"/><path class="cls-12" d="M206.23,171.79c-3.36,2.53-.08,53,2.13,52.06l2.83-46,48.88-6v-5Z"/><polygon class="cls-12" points="333.74 236.6 333.74 241.21 425.82 238.91 424.4 236.6 333.74 236.6"/><polygon class="cls-12" points="115.21 234.48 115.21 241.21 200.92 241.21 206.47 235.09 115.21 234.48"/><path class="cls-12" d="M107.42,207.56A136.92,136.92,0,0,1,89.36,271a137.19,137.19,0,0,1-51,50.64L49,312l12.4-11.33L72.89,288l12.57-17,8.15-17,6.73-17.36Z"/><path class="cls-12" d="M442.7,217.7a131.59,131.59,0,0,0,18.46,63.56c17.5,29.47,41.9,44.86,53.25,51.12l-11.1-9.67-12.95-11.44-12-12.86L465.26,281.3l-8.43-17.08L449.9,246.8Z"/><polyline class="cls-12" points="76.12 78.68 68.82 73.33 55.36 69.08 50.05 69.08 46.15 73.88 50.76 76.17 61.13 78.68 68.11 82.89 55.36 95.29 70.59 100.6 78.38 94.94 85.82 98.83 93.96 109.1 119.34 160.78 117.9 140.23 104.59 112.29 93.96 97.42 91.48 90.33"/><polyline class="cls-12" points="460.18 77.44 469.38 72.13 487.8 70.5 492.76 70.5 497.01 75.87 477.17 79.71 469.38 88.45 481.07 96.35 464.07 105.21 453.09 99.54 436.8 127.87 430.42 143.46 425.82 163.29 421.57 182.77 421.57 163.64 420.06 143.99 430.34 118.85 446.36 96.35 449.24 93.12"/></g><g id="bogstaver"><path class="cls-8" d="M201.09,95.9l-1.92-1-1.45-1.27.07-1.8-.69-1.54a4.07,4.07,0,0,1,1.13-1.91c1.24-.85,1.87-1.58,2.32-1.56l2.86.11,2,.08,1,2.3.51,2.28.62,3.34-1.08,4.47-.86,2.53-2.85,3.65-2.06,2.33-4.29,1.79-3.34.77-4.51-.18-5.84-1-6.78-3.58-1.75-1.58-2.49-1.75-1.43-1.87-1.45-1.41c-.72-.94-3.3-.44-3.3-.44l-3.53,1.67-4,1.8-3.74,3.17-3,3.49-2,4.29-1.58,5.51L146.34,124l-.22,5.71-.27,6.62,1.2,4.11,1.87,5.8,3.39,5.86,3.88,4.68,4.05,4.23,4.55,2.89,4.87,2.45,5.68,1.13,4.22.17,3.82-1.5,2.54-3.22.89-7.34.75-7.36V141l0-6.93-1.12-5.77L183,125.76l-3.75-.45-3.06,1.38-2.8,2.15-1.29,2.21-.23,1.8.68,2,1.62,1,1.7-1.14.09-2.4,1.54-.7,2.84.57,2.16,2.35,1,4.41-.44,3.44-1,2.82-2.92,1.4-1.67.23L178,150l-.06,5.27-1.49,3.41-4.28,1.48-2.72.35-3.29-.74-1.59-1.57-2-2.49-1.1-2.75,3.89.76,3.47-.17.38-1.94s-2.52-4.92-2.65-5.38-2.91-6.29-2.91-6.29l-.94-6.82,1.33-6.87,2.31-5,4.51-3.59,4.91-2.21s2.88-.34,3.33-.32l5.27.06,6.23,2.35,6.66,6.75,3.62,7.52,1.79,7.91-.48,8.26-5.1,11-4.32,6.3-3.5,4.68-6.81,4.55L176.36,176s-10.24,0-10.68-.43-10.57-3-10.57-3l-7.25-3.45-9.44-8.81-3.15-4-3.63-7.37-1.33-4.27-.89-4.26-.59-7.85.32-8,2.58-8,3.64-8.14,4.47-6.45L146,95.66l5.59-4.3,7.08-3.78s4.48-2.84,4.94-3,3.51-1.22,3.51-1.22l2.33-1.56,2.37-2.92,1.53-.54A4.18,4.18,0,0,1,174.87,81l-1.12,1.77,2.84.56,2.25.09,2.69,4.48,2.58,3.26,2,2.79,3.37,2.25,2.49,1.9,4.2.47,2.71,0,2.17-1.42Z"/><path class="cls-8" d="M130.41,320.18a16.11,16.11,0,0,0-2.48-3.19l-4.6-3.54v-1.77h30.46v2.13l-3.19,2.12v9.21l-.35,25.5.35,17.71,12-5,5.67-3.9V311.68l-3.54-2.12-1.42-2.48H191v3.18l-2.84,4.25-1.06,3.55.35,34,3.55-.71,8.5-1.06,6.72,1.41-2.12,2.13-9.56,2.48-6.73,3.18-.36,32.23-.35,18.77.35,7.44-.35,3.19,3.9,4.6,2.47,3.54h-2.83l-10.27-1.77s-9.92.71-11.33.36-8.15,0-8.15,0l-.35-3.54,6-3.55,1.77-9.2.71-18.77L168.31,373l-17.36,5v18.77l.36,14.52v3.19L157,419l.35,2.48-35.77-3.18v-2.13l7.08-4.25L129.7,379l-10.27-4.6-7.79-9.56-3.19-4.61,3.9-2.12,8.5-1.77,2.83,1.41-5,2.48-2.48,2.48,2.83,2.83,8.5,5.67,1.77.71Z"/><path class="cls-3" d="M127,323.34a16.11,16.11,0,0,0-2.48-3.19l-4.6-3.54v-1.77h30.46V317l-3.19,2.12v9.21l-.36,25.5.36,17.71,12-5,5.67-3.9V314.84l-3.54-2.12-1.42-2.48h27.62v3.18l-2.83,4.25-1.06,3.55.35,34,3.54-.71,8.5-1.07,6.73,1.42L200.66,357l-9.56,2.48-6.73,3.18L184,394.88l-.35,18.77.35,7.44-.35,3.19,3.89,4.6,2.48,3.54H187.2l-10.27-1.77s-9.92.71-11.33.36-8.15,0-8.15,0l-.35-3.54,6-3.55,1.77-9.2.71-18.78-.71-19.83-17.36,5v18.77l.36,14.52v3.19l5.66,4.6.36,2.48-35.77-3.19v-2.12l7.08-4.25,1.06-32.94L116,377.53,108.22,368,105,363.36l3.9-2.12,8.5-1.77,2.83,1.41-5,2.48-2.48,2.48,2.84,2.83,8.5,5.67,1.77.71Z"/><path class="cls-8" d="M414.84,422.9l-9.56-2.49L395,415.1,384.38,407,373,392.8l-6-16.65L365.07,371c1.33-1.12,3-2.67,3-3.31,0-1.07,9.21-11.34,9.21-11.34l6.37-8.5,2.12-7.43v-5.32l-5.31-5.31-3.54-2.12-4.24,2.12-5,7.44-2.47,3.19-.36,1.69-1.41,6.81V377.2l.34,9.92L362.78,396l.71,7.44,4.6,4.26,2.83.34.71,2.49-26.2,18.76-.37-5.31,1.07-7.07,1.06-4.26.36-20.18-.36-59.86H336.92l16.29-12.4,9.92-9.56H366v8.5l-1.78,11.68,9.56-11.68,4.61-5,3.19.36,7.79,4.24,10.27,6.39,6,3.89,1.41,3.54-1.76,6.73-5.67,9.21-12.39,13.11-7.45,7.43,11-2.48.71,3.9,1.06,7.79,3.18,12.39,5.67,12.75,5.66,9.21Z"/><path class="cls-8" d="M398,97.29l1.42-1.63a3.81,3.81,0,0,0,0-2.43h-2.23c-1-1.62-1.63-2.84-1.63-2.84a25.56,25.56,0,0,0-.81-3,10.52,10.52,0,0,1,2.43-2.64,6.36,6.36,0,0,1,2.42-1.41h1.64c1.62,1,2.84,1.62,2.84,1.62A15.82,15.82,0,0,1,406,89.38v5.27l-1.42,3.85-4.16,3.65-4.56,2.23-6.49,1.83-4.66,1.21-5.48-1.21-5.47-1.62a41,41,0,0,1-4.06-1.63c-.61-.4-4.26-2.63-4.26-2.63l-1.21-.61-1.22,3v11.36l2,3.85,3.24,5.47,2.64,2,2.63,2h2.23l4.06-4.26,4.66-3.45,4.67-1.21,5.07-.21,5.06,1.22,4.87,5.88L406,133v10.14l-3.86,9.33L397,158.32l-8.31,6.49-4.26,2.63L381,172.72,378.78,176l-6.49-9.12-7.91-10.14-5.07-2.64-3.85-1.22-3.65,2.23-1.42,3.86,1,1.42,3-.61,2.84,2.23v4.87l-2.84,2.43-4.05-.81s-3.65-1.83-4.06-2.44-2-5.06-2-5.06l2.44-6.29,3.85-5.48,6.08-5.27,6.69-2.23,6.09.2,4.26,2.64,3,3,4.05,5.48,4.26,3.65,2,1.62,1.62-3.45,1-5.07v-5.88l-.4-5.27-2.64-3.85-2.63-2-3.65.2s-2.84,1.22-3.45,1.42-5.47,1.62-5.47,1.62H359.72s-4.26-1.82-4.87-2a16.11,16.11,0,0,1-3.65-2.84c-.41-.61-2.23-2-2.43-2.64s-1.83-3.85-1.83-3.85-.4-3.45-.61-4.06-.4-4.46-.4-4.46l1.82-6.48,2.84-5.07,3.65-5.48,5.88-6.49L366.2,87l3.05-2.64,1.21-1,1.83-2c1.82.61,2.84,3,2.84,3l1.41,2,5.28,4,6.28,4.06,4.26,1.82,2.84,1Z"/><path class="cls-3" d="M397.89,102.54l1.42-1.62a3.81,3.81,0,0,0,0-2.43h-2.23c-1-1.63-1.63-2.84-1.63-2.84a25,25,0,0,0-.81-3A10.52,10.52,0,0,1,397.07,90a6.46,6.46,0,0,1,2.42-1.42h1.64c1.62,1,2.84,1.62,2.84,1.62a15.94,15.94,0,0,1,1.83,4.46v5.28l-1.42,3.85-4.16,3.65-4.56,2.23-6.49,1.82-4.66,1.22L379,111.46l-5.47-1.62a43.16,43.16,0,0,1-4.06-1.62c-.61-.41-4.26-2.64-4.26-2.64L364,105l-1.22,3v11.35l2,3.85,3.24,5.48,2.64,2,2.63,2h2.23l4.06-4.25,4.66-3.45,4.67-1.22,5.07-.2,5.06,1.22,4.87,5.88,1.83,7.5v10.14l-3.86,9.32-5.07,5.88-8.31,6.49-4.26,2.64L380.86,178l-2.24,3.25-6.48-9.13L364.23,162l-5.07-2.63-3.85-1.22-3.65,2.23-1.42,3.85,1,1.42,3-.61,2.84,2.23v4.87l-2.84,2.43-4.05-.81s-3.65-1.82-4.06-2.43-2-5.07-2-5.07l2.44-6.29,3.85-5.47,6.08-5.27,6.69-2.23,6.09.2,4.26,2.64,3,3,4,5.47,4.26,3.65,2,1.62,1.62-3.44,1-5.07v-5.88l-.4-5.27-2.64-3.86-2.63-2-3.65.2s-2.84,1.22-3.45,1.42-5.47,1.62-5.47,1.62H359.56s-4.25-1.82-4.86-2a15.84,15.84,0,0,1-3.65-2.84c-.41-.6-2.23-2-2.43-2.63s-1.83-3.85-1.83-3.85-.41-3.45-.61-4.06-.4-4.46-.4-4.46l1.82-6.49,2.84-5.07,3.65-5.47L360,97.88l6.08-5.68,3-2.64,1.22-1,1.83-2c1.82.61,2.83,3,2.83,3l1.42,2,5.28,4.06,6.28,4,4.26,1.83,2.84,1Z"/><path class="cls-3" d="M198.1,98.69l-1.92-1-1.46-1.27.07-1.8-.69-1.53a4.06,4.06,0,0,1,1.13-1.92c1.24-.85,1.87-1.58,2.32-1.56l2.86.11,2,.08,1,2.3.51,2.28.62,3.34-1.08,4.47-.85,2.53-2.86,3.65-2,2.33-4.29,1.79-3.35.77-4.51-.18-5.83-1-6.79-3.58L171.1,107l-2.49-1.75-1.43-1.87-1.45-1.41c-.72-.93-3.3-.43-3.3-.43l-3.53,1.66-4,1.8-3.74,3.17-3,3.49-2,4.29-1.57,5.51-1.27,5.38-.23,5.71-.26,6.62,1.19,4.11,1.88,5.8,3.38,5.86,3.88,4.68,4.05,4.23,4.55,2.89,4.88,2.45,5.68,1.13,4.21.17,3.83-1.5,2.53-3.22.9-7.34.74-7.36v-7.23l0-6.93-1.13-5.77L180,128.55l-3.75-.45-3.07,1.38-2.8,2.15-1.29,2.21-.22,1.8.67,2,1.62,1,1.7-1.14.1-2.4,1.53-.69,2.84.56,2.17,2.35,1,4.41-.44,3.44-1,2.83-2.92,1.39-1.66.23.47,3.18-.06,5.27-1.49,3.41-4.27,1.49-2.73.34-3.28-.73-1.6-1.57-2-2.49-1.09-2.76,3.88.76,3.47-.17.38-1.94s-2.51-4.92-2.65-5.38-2.91-6.29-2.91-6.29l-.93-6.82L161,129l2.31-5,4.51-3.59,4.91-2.21s2.87-.34,3.32-.32l5.27.06,6.24,2.35,6.66,6.75,3.61,7.52,1.8,7.91-.48,8.26-5.11,11-4.32,6.3-3.5,4.68-6.81,4.55-6.08,1.57s-10.25,0-10.68-.43-10.58-3-10.58-3l-7.24-3.45-9.44-8.81L132.27,159l-3.62-7.37-1.34-4.27-.88-4.25-.59-7.86.31-8,2.58-8,3.64-8.14,4.48-6.45L143,98.45l5.6-4.3,7.08-3.78s4.48-2.84,4.93-3,3.52-1.21,3.52-1.21l2.32-1.57,2.38-2.92,1.52-.54a4.22,4.22,0,0,1,1.56,2.62l-1.13,1.77,2.84.56,2.26.09,2.68,4.48,2.58,3.26,2,2.79L186.49,99l2.48,1.91,4.2.46,2.71,0,2.17-1.42Z"/><path class="cls-3" d="M412.92,428.45,403.37,426l-10.28-5.31-10.63-8.14-11.33-14.16-6-16.65-2-5.19c1.33-1.12,3-2.68,3-3.31,0-1.07,9.21-11.34,9.21-11.34l6.36-8.5,2.13-7.44v-5.31l-5.32-5.31L375,333.18l-4.25,2.12-5,7.43-2.47,3.19-.36,1.7-1.42,6.81v28.32l.35,9.92-1.06,8.85.71,7.44,4.61,4.26,2.83.34.7,2.49-26.2,18.76-.36-5.31,1.07-7.07,1-4.26.36-20.19-.36-59.85H335l16.28-12.4,9.92-9.56h2.84v8.5l-1.77,11.68,9.56-11.68,4.6-5,3.19.36,7.8,4.24,10.26,6.38,6,3.9,1.42,3.54-1.76,6.73-5.68,9.21L385.3,367.18l-7.44,7.43,11-2.48.71,3.9,1.07,7.79,4.56,12.39L399.47,409l5.66,9.21Z"/></g></svg>