<svg xmlns="http://www.w3.org/2000/svg" xmlns:xlink="http://www.w3.org/1999/xlink" viewBox="0 0 403.19 411.32"><defs><style>.cls-1{fill:url(#Ikke-navngivet_forløb_138);}.cls-2{fill:url(#Ikke-navngivet_forløb_93);}.cls-3{fill:url(#Ikke-navngivet_forløb_312);}.cls-4{opacity:0.1;}.cls-5{fill:url(#Ikke-navngivet_forløb_50);}.cls-13,.cls-6{fill:#fff;}.cls-6{opacity:0.16;}.cls-7{fill:url(#Ikke-navngivet_forløb_67);}.cls-8{fill:url(#Ikke-navngivet_forløb_292);}.cls-9{fill:#e6a114;}.cls-10{fill:#c47400;}.cls-11{fill:#0b0b09;}.cls-12{opacity:0.15;}.cls-13{opacity:0.2;}</style><radialGradient id="Ikke-navngivet_forløb_138" cx="131.08" cy="114.55" r="188.15" gradientTransform="translate(25.1 69.65) scale(1.33 1.33)" gradientUnits="userSpaceOnUse"><stop offset="0.2" stop-color="#d29415" stop-opacity="0.57"/><stop offset="0.3" stop-color="#c68b14" stop-opacity="0.54"/><stop offset="0.46" stop-color="#a37310" stop-opacity="0.45"/><stop offset="0.64" stop-color="#6a4b0b" stop-opacity="0.29"/><stop offset="0.85" stop-color="#1c1403" stop-opacity="0.08"/><stop offset="0.92" stop-opacity="0"/></radialGradient><linearGradient id="Ikke-navngivet_forløb_93" x1="17.36" y1="79.97" x2="383.89" y2="291.59" gradientUnits="userSpaceOnUse"><stop offset="0" stop-color="#e6a114"/><stop offset="0.27" stop-color="#e49e13"/><stop offset="0.48" stop-color="#dc940e"/><stop offset="0.66" stop-color="#d08407"/><stop offset="0.79" stop-color="#c47400"/></linearGradient><radialGradient id="Ikke-navngivet_forløb_312" cx="118.38" cy="95.98" r="76.7" gradientUnits="userSpaceOnUse"><stop offset="0" stop-color="#a33"/><stop offset="0.23" stop-color="#a53131"/><stop offset="0.49" stop-color="#972b2b"/><stop offset="0.78" stop-color="#802222"/><stop offset="1" stop-color="#681818"/></radialGradient><radialGradient id="Ikke-navngivet_forløb_50" cx="281.55" cy="95.88" r="76.81" gradientUnits="userSpaceOnUse"><stop offset="0" stop-color="#036031"/><stop offset="0.37" stop-color="#035b2e"/><stop offset="0.8" stop-color="#024d26"/><stop offset="1" stop-color="#024421"/></radialGradient><radialGradient id="Ikke-navngivet_forløb_67" cx="291.13" cy="284.17" r="91.47" gradientUnits="userSpaceOnUse"><stop offset="0" stop-color="#0e5777"/><stop offset="0.2" stop-color="#0f5472"/><stop offset="0.42" stop-color="#124b64"/><stop offset="0.67" stop-color="#173c4c"/><stop offset="0.93" stop-color="#1f282c"/><stop offset="1" stop-color="#212121"/></radialGradient><radialGradient id="Ikke-navngivet_forløb_292" cx="107.53" cy="283.01" r="90.85" gradientUnits="userSpaceOnUse"><stop offset="0" stop-color="#e5d93c"/><stop offset="0.24" stop-color="#e5d537"/><stop offset="0.53" stop-color="#e6c829"/><stop offset="0.84" stop-color="#e8b212"/><stop offset="1" stop-color="#e9a402"/></radialGradient></defs><g id="Lag_13" data-name="Lag 13"><ellipse class="cls-1" cx="198.98" cy="221.96" rx="252.72" ry="246.98"/></g><g id="Lag_3" data-name="Lag 3"><path class="cls-2" d="M34.79,60.52c3.14-3,3.45-4.29,6.55-6.54a32,32,0,0,1,7.85-3.93,91.34,91.34,0,0,0,14.41-7.2c1.65-1.08,1.81-1.36,13.09-12.44,8.81-8.66,8.87-8.65,9.82-9.82,3-3.7,4.72-6.65,9.17-11.13,3.93-4,5.34-4.43,5.89-4.58,3.9-1.11,7.51,1.08,13.09,4.58a50.8,50.8,0,0,1,14.4,12.44c2.1,2.72,2.57,4,6.55,9.16,3.85,5,5.25,6.27,6.55,7.21,2.27,1.63,4.59,2.42,9.16,3.92a106.51,106.51,0,0,0,12.44,3.28c6.75,1.32,7,.73,12.44,2,5.91,1.34,8.86,2,11.78,3.93,6.11,4,6.46,9,10.48,9.16,1.61.06,3.26-1.05,6.54-3.27,4-2.68,4.79-4.22,7.21-5.89C214.89,49.5,218,49,224,48.09c10.06-1.54,11.41-.28,18.33-2a38,38,0,0,0,10.47-3.93c1.37-.77,4.41-2.63,11.79-10.47,4.67-5,4.48-5.31,9.82-11.13,7.71-8.41,10.28-10,12.44-11.13,2.62-1.31,6.09-3.05,10.47-2.62,4.55.45,7.46,3,13.1,7.86a82.71,82.71,0,0,1,10.47,11.13c4,5,3.73,5.54,6.55,8.51,1.32,1.39,4.17,4.2,11.13,8.51,6.42,4,8,4.08,16.36,8.51s12.68,6.74,15.71,9.82a37.4,37.4,0,0,1,9.17,16.37,43.83,43.83,0,0,1,0,22.91c-1.33,5.65-3.38,14.36-11.13,21.6-2.2,2.06-11.6,10.83-22.26,9.17-9.25-1.45-14.19-9.94-17.67-7.86-1.07.64-1.47,2-2,7.86-.95,11.33-.65,15.71-.65,15.71,1,14.95,1.52,22.42,2.62,27.5C333.11,194.75,344.63,208.8,353,219c11.69,14.25,17.53,21.38,28.15,26.84,6.4,3.3,12.6,5.06,15.06,11.13,2.82,7-1.2,14.9-3.28,19-1.67,3.29-4.14,7-15.71,17.67-15.1,13.87-15.77,12-19,17-7.32,11.53-4.49,22.46-10.48,24.22-2.93.86-6.47-.93-9.82-2.62-5.84-2.95-7-6.19-9.82-5.89-3.17.33-4.55,4.62-7.2,9.16s-6.75,8.21-15.06,15.71c-4.88,4.41-10.54,7.75-45.82,20.3-25.54,9.08-29.22,9.69-34.7,15.06a190.62,190.62,0,0,1-15.06,13.09c-8.36,6.56-10.76,7.33-13.09,7.2-4.93-.27-7-4.38-15.06-11.78a170.73,170.73,0,0,0-14.4-11.13c-15.64-11.15-25.88-7.72-45.17-16.37-11.08-5-18-8.3-24.23-15.71-4.35-5.17-4.8-8.14-10.47-13.09-8-7-16.24-9.06-15.71-11.13.39-1.52,5.16-1.63,5.23-1.31s-7.28.91-15.71,5.89c-5.26,3.11-5.74,4.89-7.85,4.58-3.57-.51-4.54-5.89-11.13-20.29-3.87-8.45-5.21-10.25-5.89-11.13C32.11,299.44,27.57,298,23,294.89c-13.58-9.18-21.77-29-16.37-38.62C7.94,254,9.58,253,12.53,251c9.66-6.46,17.85-14.89,26.84-22.26,19.21-15.73,29-37.5,29.46-38.62,0,0,8.52-19.48,8.51-47.79a60.29,60.29,0,0,0-.65-8.51c-1.49-8.92-2.11-9.66-2.62-9.82-1.66-.52-3.28,2.4-5.89,4.58-7.63,6.36-20,3.25-22.26,2.62-13.06-3.63-18.9-15.91-21.6-21.61-5.41-11.39-4.51-21.55-3.93-28.15.48-5.48.9-9.55,3.93-13.09C27.22,65,29.45,65.66,34.79,60.52Z"/><path class="cls-3" d="M43.3,52c-.21-2.2,7.26-3.23,18.33-9.82,5.65-3.36,8.56-5.09,11.79-8.51,7-7.45,7-13.86,13.09-15.71,1.44-.44,3.58-.29,7.86,0,4.51.31,8.34.57,11.78,2,1.49.61,4.28,2,11.78,11.79,7.19,9.39,6.61,10.72,10.48,14.4,3.15,3,7.38,4.87,15.71,8.51,13.76,6,25.53,9.82,25.53,9.82a106.79,106.79,0,0,1,13.75,5.89c4.55,2.31,6.07,3.47,7.2,5.24,1.88,2.94,1.52,5.77,1.31,11.79-.23,6.81-.08,12.31,0,14.4.49,12.22,3.22,17.06,0,20.29-1.57,1.58-3.89,2.1-5.85,2.54-3.28.74-4.32,0-8.68,0-3,0-5.58.54-10.73,1.53-5.41,1.05-5.55,1.49-8.17,1.54s-4-.41-5.1.51c-1.37,1.14-1.22,3.3-1,6.64.2,3.57.27,7.15.51,10.72.6,9-.33,8.54.51,13.79.53,3.35.7,5,1,8.17.4,3.95.4,5.41-.51,6.12-1.11.86-2.62-.12-5.62-.51s-4.91.17-7.15.51c-5.35.83-10.34.7-19.4.51-6.28-.13-6.31-.45-12.77-.51H93.12c-3.23.22-4.34.66-5.1,0-1.1-1-.19-3.17.76-7.15.68-2.85.94-5.8,1.53-8.68,1.29-6.21,1.48-12,1.79-21.7s.47-14.42,0-18.89a87.46,87.46,0,0,0-12-35,82.83,82.83,0,0,0-9.19-12.51c-4.82-5.39-9-10.08-15.83-13.28S43.47,53.76,43.3,52Z"/><polygon class="cls-4" points="187.38 119.5 176.89 120.93 167.57 120.93 160.4 120.93 148.8 123.76 145.74 129.01 145.74 146.66 145.74 172.62 171.27 171.46 192.46 146.66 192.46 119.5 187.38 119.5"/><path class="cls-5" d="M208.27,77.27c-1,2-.65,3.89-.51,5.87.26,3.57-.39,3-.76,9.45-.26,4.39.14,3.44.25,14,.05,4.19,0,7,.26,11.75,0,.72-.66,2.53.25,4.08a5.14,5.14,0,0,0,2.81,2c2,.76,2.89.23,6.9.26,2.35,0,2.14.2,5.36.25,2.8,0,3-.08,4.85,0,2.54.13,2.45.41,5.87.77a45.33,45.33,0,0,0,7.4.51c1.33-.13,2.28-.35,3.07.26s.92,1.84,1,3.32c.48,7,.58,4.56.51,6.38-.5,12.47-.54,13.09-.51,14.81.07,3.77.35,4.11.22,7.17a44.73,44.73,0,0,1-.73,7.89,18.32,18.32,0,0,0-.51,4.34c0,2.11,0,2.52.25,2.81.87,1.2,3,.88,5.37.77,2.81-.14,5.61.46,8.42.51,12.94.2,19.41.3,22,.25,9.25-.17,17.71-.66,21.7-.51,1.36.05,2.72,0,4.09,0,2.51.05,3,.14,3.57-.25,1.13-.82,1-2.73.77-5.62-.64-8-.77-8.68-.77-8.68-1.51-8.19-2.26-12.28-2.3-12.51-.26-1.7-.35-2.84,0-16.34.37-14.26.56-16.21,1-18.9a78.24,78.24,0,0,1,3.32-12.51,96.75,96.75,0,0,1,6.9-15.06A93.43,93.43,0,0,1,328,69.1c4.14-5.22,7-7.46,8.68-8.68a43.85,43.85,0,0,1,6.64-3.83,24.66,24.66,0,0,1,5.87-2.3c3.47-.74,6.58-.78,6.94-1.7s-2.4-1.82-3.62-2.64c-1.73-1.16-2.15-1.06-4.68-2.38s0,0-5.79-4.09c-2.45-1.73-4.54-.52-6.26-2.38s-4.95-3.51-5.23-3.92c-4.36-6.29-5.94-6.62-13.19-14.8-2.19-2.48-2.38-3.58-4.88-4.66S306.38,17,305,17a21.76,21.76,0,0,0-8.17,2,36,36,0,0,0-7.15,3.83,39,39,0,0,0-7.4,6.89c-1.49,1.69-2,2.51-6.13,8.17-3.93,5.44-5.9,8.16-6.38,8.68a36.8,36.8,0,0,1-11.49,8.17c-2.6,1.25-6.16,2.19-13.28,4.09-6.71,1.78-8.78,2-14,3.83A57.14,57.14,0,0,0,222.83,66a60.75,60.75,0,0,0-7.15,4.34,33.44,33.44,0,0,0-4.6,3.57A11.44,11.44,0,0,0,208.27,77.27Z"/><polygon class="cls-4" points="210.98 119.5 221.47 120.93 230.79 120.93 237.96 120.93 249.56 123.76 252.62 129.01 252.62 146.66 252.62 172.62 227.09 171.46 205.9 146.66 205.9 119.5 210.98 119.5"/><path class="cls-6" d="M374.5,262.45l-1.42,1.62c-7.22,8.25-39.66,45.36-38.75,45.36s5.79,2.73,5.79,2.73l5.78-5.45,2.39-5.45,2.72-3.74,6.76-7.15s5.15-6.25,6.17-6.36,3.07-2.49,3.07-2.49l4.42-1.36c2.73-3.41,4.09-6.81,5.11-8.17s1.93-7.15,1.93-7.15"/><polyline class="cls-6" points="321.05 295.84 324.12 298.56 326.16 300.94 323.61 304.35 318.67 311.16 313.05 319.33 305.73 328.52 297.9 337.03 288.03 345.88 277.14 353.03 267.08 356.77 254.33 361.54 239.67 364.94 223.39 372.09 206.47 383.16 210.75 369.03 318.67 295.84"/><path class="cls-7" d="M244.78,187.41c1.23-1.81,4.25-.77,12.77-.51,5.92.18,5.3-.24,12.62-.1,6.57.13,9.07.53,17.51.1,7.14-.37,14.54,1.6,21.44-.25a4.42,4.42,0,0,1,3.58.25c1.3.91,1.41,2.77,1.53,3.83.1.87,1.43,3.81,4.08,9.7a89.91,89.91,0,0,0,6.13,11.49c3.57,5.57,7,9.16,12,14.3,4.43,4.56,3.81,3.45,10.72,10.21,8.44,8.25,13.59,14,18.13,17.11,1.92,1.3,3.71,2.77,5.62,4.08a21.56,21.56,0,0,1,2.81,2.3,8.25,8.25,0,0,1,1.79,2c.9,2-.49,4.52-1.54,6.39a26.23,26.23,0,0,1-2.81,3.83c-1.49,1.84-2.7,3.13-4.08,4.59a47.25,47.25,0,0,1-4.09,4.09c-1.71,1.41-2.13,1.39-4.85,3.32a49.71,49.71,0,0,0-4.59,3.57,38.68,38.68,0,0,0-5.36,6.13,46.7,46.7,0,0,0-5.37,8.17c-.81,1.64-1.74,3.21-2.55,4.85-1.11,2.26-1.58,3.41-2.55,3.57-.65.11-1-.3-2.81-1.53-2.29-1.56-2.19-1.21-4.09-2.55a46.24,46.24,0,0,1-3.83-3.06c-2.5-2.25-2.95-3.16-4.34-3.32a4.28,4.28,0,0,0-2.8.76c-1.75,1.17-1.76,3-3.07,5.88a39.75,39.75,0,0,1-2.81,4.59c-2.09,3.2-3.89,5.49-5.61,7.66-5.05,6.35-7.57,9.53-8.43,10.47a102.84,102.84,0,0,1-11.23,10.21c-6.18,5.13-9.27,7.69-12.26,9.45-4.52,2.64-9.39,4.23-19.15,7.4-6.25,2-7,2-12,3.83-1.35.5-5.07,2-12.51,5.11a89.69,89.69,0,0,0-10.72,4.85c-1.47.82-2.94,1.74-5.87,3.57a33.7,33.7,0,0,0-4.86,3.32c-3.06,2.78-3.39,5-4.08,4.85-1.62-.3-.31-12.45.26-29.87.05-1.78.2-6.56.25-12.76,0-2.95.06-10.13-.25-23.24-.3-12.17-.45-11-.52-16.59-.08-7.59.22-7.49,1-29.11,0,0,.78-21,.25-27.83-.14-1.87,0-3.77-.25-5.62-.2-1.23-.42-1.95,0-2.55.79-1.13,3.14-.71,4.59-.51,3.54.49,7.15-.1,10.72,0,11.74.33,10.14-.09,12.77.25,4.48.6,6.23,1.44,7.66.26s1.13-3,1-7.66c0-1.17.07-5.72.26-14.81.07-3.38.16-5.18.25-10.72.08-4.57.05-5.34,0-6.13C245,189.65,244,188.63,244.78,187.41Z"/><polygon class="cls-4" points="213.54 240.38 223.02 238.93 231.44 240.38 237.92 240.38 247.52 237.75 251.17 230.75 251.17 212.88 251.17 186.59 228.09 187.77 208.95 212.88 208.95 240.38 213.54 240.38"/><path class="cls-6" d="M25.57,261.45,27,263.07c7.23,8.25,39.67,45.36,38.76,45.36S60,311.16,60,311.16l-5.79-5.45-2.38-5.45-2.72-3.74-6.76-7.15s-5.16-6.25-6.18-6.36-3.06-2.49-3.06-2.49l-4.43-1.36c-2.72-3.41-4.08-6.81-5.1-8.17s-1.93-7.15-1.93-7.15"/><polyline class="cls-6" points="79.02 295.84 75.95 298.56 73.91 300.94 76.46 304.35 81.4 311.16 87.02 319.33 94.33 328.52 102.17 337.03 112.04 345.88 122.93 353.03 131.78 358.48 145.74 361.54 160.4 364.94 172.04 370.05 191.62 380.68 189.31 369.03 81.4 295.84"/><path class="cls-8" d="M152.36,187.16c1.56,1.09,2,3.22,2.29,4.34.37,1.61.13,2.45,0,5.36-.07,1.58,0,2.93,0,5.61.06,3.08.21,3.3.51,8.69.23,4.09.35,6.13.26,7.66-.19,3.26-.62,3.66-.51,6.38.1,2.38.47,3,.25,5.1-.14,1.47-.39,2,0,2.56s1.21.65,5.11.25c2.86-.28,3.4-.44,4.85-.51a35.76,35.76,0,0,1,4.85.26,75.25,75.25,0,0,0,9.71,0c2-.11,4.08-.12,6.12-.26,2.37-.16,3.66-.32,4.6.51s1,2.16,1,3.32c.17,6.12.26,9.17.26,9.19-1,6.49-.06,13.11-.26,19.66-.27,8.86.14,9.29.51,29.88.14,7.48.31,17.11.26,29.1-.07,14.48-.4,18.51-.51,35.75-.06,8.52,1.78,19,0,19.4-.82.19-1.5-1.87-4.35-4.34a22.88,22.88,0,0,0-7.4-4.08c-7.5-3-7.62-4-14.81-6.9-14.77-6-19.08-3.79-31.66-9.19a80,80,0,0,1-14.81-8.43c-3.49-2.41-17.77-12.46-27.32-27.82-4-6.4-10-11.65-12.76-18.64-.18-.46-1-2.57-2-2.56-.86,0-1.27,1.43-2.3,3.07-.75,1.18-2.3,2.51-5.36,5.1C63.68,310,62.93,310,62.48,310c-2.06-.32-3.1-3.31-3.83-5.1A53.13,53.13,0,0,0,40,282.13c-4.39-2.82-6.83-2.83-9.45-6.38-2.1-2.85-1.55-4.22-4.6-8.42-2.11-2.91-3.7-4.07-3.32-5.62.34-1.35,1.86-1.77,4.34-3.06,1.6-.84,3.71-2.43,7.92-5.62a82.78,82.78,0,0,0,8.42-7.66c5.05-5,8.49-8.45,11-11,12.54-12.69,12.35-11.71,15.07-15.32a153.24,153.24,0,0,0,8.68-13.53c2.13-3.56,3.74-5.3,4.85-8.43.75-2.13,1.87-4.16,2.3-6.38.23-1.22.34-2.39,1.27-3.06s1.91-.41,3.32-.26c2,.21,3.92-.09,5.88,0,4.5.21,9,.15,13.53.26,11.69.28,13.84.3,16.85.25,3.2,0,4.06-.21,7.66-.25,7.47-.1,7.13.35,10.21,0C148.82,187.11,150.53,185.88,152.36,187.16Z"/><polygon class="cls-4" points="187.79 238.43 178.31 237.03 169.88 238.43 163.41 238.43 153.81 235.88 150.16 229.11 150.16 211.81 150.16 186.37 173.23 187.51 192.38 211.81 192.38 238.43 187.79 238.43"/><path class="cls-9" d="M152.59,129.28l15.09-2.12,14.44-2.3s19.26-1.45,21.3-1.37,18.38,1.11,18.38,1.11l22,1.79,1.85,2.89V233.37H209l-38.81-.51-14.81.51-3.06-101.11Z"/><path class="cls-10" d="M70.85,116.71c2.22-3.75-.57-9.33-3.06-14.3-.7-1.39-2.68-4.16-6.64-9.7s-4.94-6.59-6.64-7.66a18.34,18.34,0,0,0-8.68-2.55,17.1,17.1,0,0,0-8.17,1c-1.76.71-4.62,1.87-6.13,4.59-1.4,2.53-.76,5.43.51,11.24,1.08,4.9,1.62,7.35,3.58,10.21a21.71,21.71,0,0,0,6.64,6.13A28.42,28.42,0,0,0,53,119.77C55.67,120.22,67.6,122.22,70.85,116.71Z"/><path class="cls-10" d="M328.72,114.67c-.7-2.43.55-5.23,3.07-10.73,2.19-4.79,3.29-7.18,5.61-10.21a36.38,36.38,0,0,1,8.69-8.17c3.51-2.31,6.27-4.13,10.21-4.08,1,0,5.17,0,8.17,3.06,2.6,2.61,2.79,5.92,3.06,10.72.25,4.24.5,8.66-2,13.28-2.12,3.86-5.12,5.92-7.66,7.66a31.34,31.34,0,0,1-10.21,4.6c-4.08,1-8.36,2-12.77,0C333.77,120.29,329.82,118.47,328.72,114.67Z"/><path class="cls-11" d="M163.62,219.92a7.24,7.24,0,0,1,1.4-5,7.08,7.08,0,0,1,2.68-2,12.82,12.82,0,0,1,4-.77h0v-61a9.9,9.9,0,0,1-8.17-2.55,9.6,9.6,0,0,1-2-10.21h26.32v8.93h-3.6v25H199v18.39H184.56v21.83h6V222H164Z"/><path class="cls-11" d="M234.34,219.92a7.19,7.19,0,0,0-1.4-5,7.08,7.08,0,0,0-2.68-2,12.77,12.77,0,0,0-4-.77h0v-61a9.9,9.9,0,0,0,8.17-2.55,9.6,9.6,0,0,0,2-10.21H210.19v8.93h3.6v25H199v18.39h14.43v21.83h-6V222H234Z"/><path class="cls-12" d="M163.62,226.13a7.24,7.24,0,0,1,1.4-5,7.08,7.08,0,0,1,2.68-2,12.82,12.82,0,0,1,4-.77h0v-61a9.9,9.9,0,0,1-8.17-2.55,9.6,9.6,0,0,1-2-10.21h26.32v8.93h-3.6v25H199V196.9H184.56v21.83h6v9.44H164Z"/><path class="cls-12" d="M234.34,226.13a7.19,7.19,0,0,0-1.4-5,7.08,7.08,0,0,0-2.68-2,12.77,12.77,0,0,0-4-.77h0v-61a9.9,9.9,0,0,0,8.17-2.55,9.6,9.6,0,0,0,2-10.21H210.19v8.93h3.6v25H199V196.9h14.43v21.83h-6v9.44H234Z"/></g><g id="highlights"><polygon class="cls-13" points="275.93 18.39 328.82 71.72 337.08 63.15 282.57 12.77 275.93 18.39"/><polygon class="cls-13" points="59.83 61.31 68 66.5 125.29 18.9 118.65 12.77 59.83 61.31"/><polygon class="cls-13" points="206.91 123.49 207.25 128.18 240.44 130.73 241.97 132.52 245.61 165.92 244.02 126.55 206.91 123.49"/><path class="cls-13" d="M153.63,128.43c-2.42,1.82-.06,38.2,1.53,37.53l2.05-33.19,35.23-4.34v-3.57Z"/><polygon class="cls-13" points="245.55 175.16 245.55 178.47 311.93 176.81 310.91 175.16 245.55 175.16"/><polygon class="cls-13" points="88.02 173.62 88.02 178.47 149.8 178.47 153.81 174.07 88.02 173.62"/><path class="cls-13" d="M82.4,154.22a98.78,98.78,0,0,1-13,45.7,98.89,98.89,0,0,1-36.77,36.51l7.66-6.89,8.94-8.17,8.3-9.19,9.06-12.26,5.87-12.25,4.85-12.51Z"/><path class="cls-13" d="M324.1,161.53a94.9,94.9,0,0,0,13.31,45.82A102.06,102.06,0,0,0,375.8,244.2l-8-7L358.46,229l-8.66-9.27-9.44-12.34-6.07-12.3-5-12.56Z"/><polyline class="cls-13" points="59.83 61.31 54.57 57.45 44.87 54.39 41.04 54.39 38.23 57.85 41.55 59.5 49.03 61.31 54.06 64.35 44.87 73.28 55.85 77.11 61.46 73.03 66.82 75.84 72.7 83.24 90.99 120.5 89.95 105.68 80.36 85.54 72.7 74.81 70.91 69.71"/><polyline class="cls-13" points="336.7 60.42 343.34 56.59 356.61 55.41 360.19 55.41 363.25 59.28 348.95 62.05 343.33 68.35 351.76 74.05 339.5 80.43 331.59 76.35 319.85 96.77 315.25 108.01 311.93 122.31 308.87 136.35 308.87 122.56 307.78 108.39 315.19 90.27 326.74 74.05 328.82 71.72"/></g><g id="bogstaver"><path class="cls-9" d="M149.93,73.72,148.54,73l-1-.91.06-1.3-.5-1.1a2.84,2.84,0,0,1,.81-1.38c.89-.62,1.35-1.14,1.68-1.13l2.06.08,1.4.06.7,1.65.37,1.65.45,2.4-.79,3.23-.61,1.82-2.06,2.64-1.48,1.68-3.09,1.28-2.41.56-3.26-.13-4.2-.71-4.9-2.59-1.25-1.13-1.8-1.27-1-1.34-1-1c-.51-.67-2.37-.31-2.37-.31l-2.55,1.2-2.87,1.3-2.7,2.28L113.93,83l-1.42,3.09-1.14,4L110.46,94l-.17,4.12-.19,4.77.86,3,1.36,4.19,2.43,4.22,2.8,3.37,2.92,3,3.29,2.08,3.51,1.77,4.09.82,3,.12,2.76-1.09,1.83-2.31.64-5.3.54-5.3v-5.21l0-5-.81-4.16-2.42-1.83-2.71-.33-2.21,1-2,1.55L129,99.06l-.16,1.3.49,1.43,1.17.7,1.22-.82.07-1.74,1.11-.5,2.05.41,1.56,1.69.74,3.18L137,107.2l-.73,2-2.1,1-1.2.17.34,2.3,0,3.8L132.16,119,129.08,120l-2,.25-2.37-.53-1.15-1.13-1.44-1.8-.79-2,2.8.54,2.5-.11.27-1.4s-1.81-3.55-1.91-3.88-2.1-4.54-2.1-4.54l-.67-4.91,1-5L124.87,92l3.26-2.59,3.54-1.6s2.07-.24,2.39-.23,3.8,0,3.8,0l4.5,1.69,4.8,4.87,2.61,5.42,1.29,5.7-.35,6L147,119.11l-3.11,4.54L141.4,127l-4.91,3.28-4.39,1.13s-7.39,0-7.7-.31-7.63-2.15-7.63-2.15l-5.22-2.49-6.8-6.35-2.28-2.91-2.61-5.32-1-3.08-.64-3.07-.43-5.66.23-5.75,1.86-5.79,2.63-5.87L105.77,78l4.42-4.49,4-3.1,5.1-2.73s3.23-2,3.56-2.14,2.54-.87,2.54-.87l1.67-1.13,1.71-2.1,1.1-.39A3,3,0,0,1,131,63l-.81,1.27,2,.4,1.63.07L135.82,68l1.86,2.35,1.44,2,2.44,1.62,1.79,1.38,3,.33,2,0,1.56-1Z"/><path class="cls-9" d="M99,235.41a11.75,11.75,0,0,0-1.78-2.3l-3.32-2.55v-1.28h21.95v1.53l-2.29,1.53V239l-.26,18.39.26,12.76,8.68-3.57,4.08-2.81V229.28l-2.55-1.53-1-1.79h19.91v2.3l-2,3.06-.77,2.56.26,24.51,2.55-.51,6.13-.77,4.85,1-1.53,1.53-6.89,1.79-4.86,2.3L140.08,287l-.26,13.53.26,5.37-.26,2.29,2.81,3.32,1.79,2.56h-2L135,312.77s-7.15.51-8.17.25a45.21,45.21,0,0,0-5.87,0l-.26-2.55,4.35-2.55,1.27-6.64.51-13.53-.51-14.3L113.78,277v13.54L114,301v2.3l4.08,3.32.26,1.79-25.79-2.3V304.6l5.11-3.06.76-23.75-7.4-3.32-5.62-6.89-2.3-3.32L86,262.73l6.13-1.28,2,1-3.57,1.79-1.79,1.79,2,2,6.13,4.08,1.28.51Z"/><path class="cls-4" d="M96.51,237.69a11.32,11.32,0,0,0-1.79-2.3l-3.32-2.56v-1.27h22v1.53l-2.3,1.53v6.64l-.26,18.38.26,12.77,8.68-3.58,4.09-2.8V231.56L121.27,230l-1-1.79h19.92v2.3l-2,3.06-.76,2.55.25,24.51,2.56-.51,6.12-.76,4.85,1-1.53,1.53-6.89,1.79-4.85,2.3-.26,23.23-.25,13.53.25,5.36-.25,2.3,2.81,3.32,1.78,2.55h-2l-7.4-1.27s-7.15.51-8.17.25a45.35,45.35,0,0,0-5.88,0l-.25-2.55,4.34-2.55,1.28-6.64.51-13.53-.51-14.3-12.52,3.57v13.53l.26,10.47v2.3l4.09,3.32.25,1.79-25.79-2.3v-1.53l5.11-3.07L96,280.07l-7.41-3.32L83,269.86l-2.29-3.32,2.8-1.54,6.13-1.27,2,1-3.58,1.79-1.79,1.78,2,2.05,6.12,4.08,1.28.51Z"/><path class="cls-9" d="M304,309.46l-6.89-1.79-7.41-3.83L282.06,298l-8.17-10.21-4.34-12L268.14,272c1-.81,2.18-1.93,2.18-2.39,0-.77,6.64-8.17,6.64-8.17l4.59-6.13,1.53-5.36v-3.83l-3.83-3.83-2.55-1.53-3.06,1.53-3.58,5.36-1.78,2.3-.26,1.22-1,4.91v20.42l.25,7.15-.76,6.38.51,5.36,3.32,3.07,2,.25.51,1.79L254,314.05l-.26-3.83.77-5.1.76-3.07.26-14.55-.26-43.15h-7.4l11.74-8.94,7.15-6.89h2.05v6.13l-1.28,8.42,6.89-8.42,3.32-3.58,2.3.26,5.62,3.06L293,239l4.34,2.81,1,2.55-1.27,4.85L293,255.84l-8.93,9.45-5.37,5.36,7.92-1.79.51,2.81.77,5.62,2.29,8.93,4.09,9.19,4.08,6.64Z"/><path class="cls-9" d="M291.9,74.72l1-1.17a2.72,2.72,0,0,0,0-1.75h-1.61c-.73-1.17-1.17-2-1.17-2a20.16,20.16,0,0,0-.58-2.19,7.59,7.59,0,0,1,1.74-1.9,4.63,4.63,0,0,1,1.75-1h1.18c1.17.73,2.05,1.17,2.05,1.17A11.2,11.2,0,0,1,297.6,69v3.8l-1,2.78-3,2.63-3.29,1.61-4.68,1.31-3.36.88-3.95-.88L274.36,80a30.29,30.29,0,0,1-2.92-1.16c-.44-.3-3.07-1.91-3.07-1.91l-.88-.43-.87,2.19v8.18l1.46,2.78,2.34,4,1.9,1.46,1.9,1.46h1.6l2.93-3.07L282.11,91l3.36-.88,3.66-.15,3.65.88L296.29,95l1.31,5.41v7.31l-2.77,6.72-3.66,4.24-6,4.68-3.07,1.9-2.48,3.8L278,131.44l-4.68-6.58-5.7-7.31-3.66-1.9-2.77-.88-2.63,1.61-1,2.78.73,1,2.2-.44,2,1.61v3.51l-2,1.75-2.93-.58a17.43,17.43,0,0,1-2.92-1.75c-.29-.44-1.46-3.66-1.46-3.66l1.75-4.53,2.78-4,4.38-3.8,4.83-1.61,4.38.15,3.07,1.9,2.2,2.19,2.92,4,3.07,2.63,1.46,1.17,1.17-2.48.73-3.66v-4.24l-.29-3.8-1.9-2.78-1.9-1.46-2.63.15s-2.05.88-2.49,1-3.94,1.17-3.94,1.17h-8.48s-3.07-1.31-3.51-1.46a11.61,11.61,0,0,1-2.63-2.05c-.29-.43-1.61-1.46-1.76-1.9s-1.31-2.77-1.31-2.77-.29-2.49-.44-2.93a31.21,31.21,0,0,1-.29-3.21l1.31-4.68,2-3.66L260.33,76l4.24-4.68L269,67.27l2.2-1.9.87-.73,1.32-1.47a4.26,4.26,0,0,1,2.05,2.2l1,1.46,3.8,2.92,4.53,2.93L287.81,74l2.05.73Z"/><path class="cls-4" d="M291.8,78.51l1-1.17a2.72,2.72,0,0,0,0-1.75h-1.61c-.73-1.17-1.17-2-1.17-2a17.4,17.4,0,0,0-.58-2.19,7.59,7.59,0,0,1,1.74-1.9,4.73,4.73,0,0,1,1.75-1h1.18c1.17.74,2.05,1.17,2.05,1.17a11.5,11.5,0,0,1,1.32,3.22v3.8l-1,2.78-3,2.63-3.29,1.61-4.68,1.31-3.36.88-3.95-.88-3.95-1.17a28.31,28.31,0,0,1-2.92-1.17c-.44-.29-3.07-1.9-3.07-1.9l-.88-.43-.87,2.19v8.18L268,93.42l2.34,4,1.9,1.46,1.9,1.46h1.61l2.92-3.07L282,94.74l3.36-.88,3.66-.15,3.65.88,3.51,4.24,1.32,5.41v7.31l-2.78,6.72-3.66,4.24-6,4.68-3.07,1.9-2.48,3.8-1.61,2.34-4.68-6.58-5.7-7.31-3.65-1.9-2.78-.88-2.63,1.61-1,2.78.74,1,2.19-.44,2,1.61v3.51l-2,1.75-2.93-.58a16.92,16.92,0,0,1-2.92-1.76c-.29-.43-1.46-3.65-1.46-3.65l1.75-4.53,2.78-3.95,4.39-3.8,4.82-1.61,4.38.15,3.07,1.9,2.2,2.19,2.92,3.95,3.07,2.63,1.46,1.17,1.17-2.49.73-3.65v-4.24l-.29-3.8-1.9-2.78-1.9-1.46-2.63.15s-2.05.87-2.49,1-3.94,1.17-3.94,1.17h-8.48s-3.07-1.32-3.51-1.46a11.61,11.61,0,0,1-2.63-2c-.29-.44-1.61-1.46-1.75-1.9S255,98.24,255,98.24s-.29-2.48-.44-2.92a31.21,31.21,0,0,1-.29-3.21l1.31-4.68,2-3.66,2.63-3.94,4.24-4.68,4.39-4.09,2.19-1.9.88-.74L273.23,67a4.26,4.26,0,0,1,2,2.2l1,1.46,3.8,2.92,4.53,2.92,3.07,1.32,2.05.73Z"/><path class="cls-4" d="M147.77,75.73l-1.39-.7-1-.91.06-1.31-.5-1.1a2.84,2.84,0,0,1,.81-1.38c.89-.62,1.35-1.14,1.68-1.13l2.06.08,1.41.06.69,1.66.37,1.64.45,2.41-.78,3.22L151,80.1l-2.06,2.63-1.48,1.68-3.09,1.29-2.41.55-3.26-.13-4.2-.71-4.89-2.58-1.26-1.14-1.8-1.27-1-1.34-1-1c-.51-.67-2.37-.31-2.37-.31L119.51,79l-2.87,1.3-2.7,2.28-2.17,2.52-1.42,3.09-1.14,4L108.3,96l-.17,4.12-.19,4.77.86,3,1.36,4.18,2.44,4.22,2.79,3.37,2.92,3,3.29,2.08,3.51,1.77,4.09.82,3,.12,2.76-1.09,1.83-2.31.64-5.3.54-5.3v-5.21l0-5-.81-4.16-2.42-1.83L132,96.93l-2.21,1-2,1.55-.94,1.59-.16,1.3.49,1.43,1.17.7,1.22-.82.07-1.74,1.11-.49,2.05.4,1.56,1.69.74,3.18-.32,2.49-.73,2-2.1,1-1.2.17.34,2.3,0,3.8L130,121,126.92,122l-2,.25-2.37-.53-1.15-1.13L120,118.83l-.79-2,2.8.55,2.5-.12.27-1.4s-1.81-3.55-1.91-3.88-2.1-4.54-2.1-4.54l-.67-4.91,1-5L122.71,94,126,91.37l3.54-1.6s2.07-.24,2.39-.23,3.8,0,3.8,0l4.5,1.7,4.8,4.86,2.61,5.42,1.29,5.7-.35,6-3.68,7.89-3.11,4.55L139.24,129l-4.91,3.28-4.39,1.13s-7.39,0-7.7-.31-7.63-2.15-7.63-2.15l-5.22-2.49-6.8-6.35-2.28-2.91-2.61-5.32-1-3.08-.64-3.07-.43-5.66.23-5.75,1.86-5.79,2.63-5.86,3.22-4.65,4.42-4.5,4-3.1,5.1-2.72s3.23-2,3.56-2.14,2.54-.88,2.54-.88l1.67-1.13,1.71-2.1,1.1-.39A3,3,0,0,1,128.86,65l-.81,1.27,2,.41,1.63.06L133.66,70l1.86,2.35,1.44,2,2.44,1.62,1.79,1.38,3,.33,2,0,1.56-1Z"/><path class="cls-4" d="M302.63,313.46l-6.89-1.79-7.41-3.83L280.67,302l-8.17-10.21-4.34-12L266.75,276c1-.81,2.18-1.93,2.18-2.39,0-.77,6.64-8.17,6.64-8.17l4.59-6.13,1.53-5.36v-3.83l-3.83-3.83-2.55-1.53-3.06,1.53-3.58,5.36-1.78,2.3-.26,1.22-1,4.91v20.42l.25,7.15-.76,6.38.51,5.36,3.32,3.07,2,.25.51,1.79-18.89,13.53-.26-3.83.77-5.1.76-3.07.26-14.55-.26-43.15h-7.4l11.74-8.94,7.15-6.89h2v6.13l-1.28,8.42,6.89-8.42,3.32-3.58,2.3.26,5.62,3.06,7.4,4.6L296,245.8l1,2.55-1.27,4.85-4.09,6.64-8.93,9.45-5.37,5.36,7.92-1.79.51,2.81.77,5.62,3.29,8.93,3.09,9.19,4.08,6.64Z"/></g></svg>