<svg xmlns="http://www.w3.org/2000/svg" xmlns:xlink="http://www.w3.org/1999/xlink" viewBox="0 0 619.9 136.84"><defs><style>.cls-1{fill:#e6a114;}.cls-2{fill:#d18d15;}.cls-3{fill:url(#Ikke-navngivet_forløb_370);}.cls-4{font-size:46.16px;font-family:BlackadderITC-Regular, Blackadder ITC;}.cls-5{opacity:0.1;}.cls-6{fill:#fff;opacity:0.2;}</style><linearGradient id="Ikke-navngivet_forløb_370" x1="40.82" y1="52.17" x2="577.91" y2="52.17" gradientUnits="userSpaceOnUse"><stop offset="0" stop-color="#c47400"/><stop offset="0.01" stop-color="#c77701"/><stop offset="0.05" stop-color="#c87902"/><stop offset="0.19" stop-color="#d48909"/><stop offset="0.36" stop-color="#de970f"/><stop offset="0.59" stop-color="#e49f13"/><stop offset="1" stop-color="#e6a114"/></linearGradient></defs><g id="Lag_12" data-name="Lag 12"><polygon class="cls-1" points="57.81 72.93 27.07 82.87 4.31 96.62 4.31 99.05 7.89 100.66 17.13 104.25 20.95 105.63 26.38 108.98 31.58 114.53 34.35 120.08 35.39 126.08 36.78 131.28 39.32 131.28 44.52 128.39 75.83 115.22 104.72 105.98 113.85 104.82 125.4 101.59 133.38 97.31 136.03 93.38 135.22 90.26 133.49 87.72 112.57 84.77 90.57 85.36 78.95 87.09 67.93 85.91 57.81 72.93"/><path class="cls-2" d="M69.59,94.54,75.37,98s7.28.63,7.63.63,8.2-1.38,8.2-1.38l7.4-1.51,6.93-.11,9.24-.12L126.1,96l8.78-.85.77-3.69-2.39-4,.11-5.08-1.27-6.59Z"/><polygon class="cls-1" points="556.96 74.66 591.87 85.95 614.63 99.7 614.63 102.13 611.05 103.74 601.8 107.33 597.99 108.71 592.56 112.06 587.36 117.61 584.59 123.16 583.54 129.16 582.16 134.36 579.62 134.36 574.42 131.47 543.11 118.3 514.22 109.06 505.09 107.9 493.54 104.67 485.56 100.39 483.91 97.95 483.71 93.34 485.45 90.8 497.7 74.66 528.37 88.44 539.99 90.17 551.01 88.99 556.96 74.66"/><path class="cls-2" d="M549.34,96.71l-5.77,3.42s-7.28.63-7.63.63-8.2-1.39-8.2-1.39l-7.4-1.5-6.93-.12-9.24-.11-11.33.58L485,98l-.22-5.2.93-3.12-.12-5.09L486.83,78Z"/><path class="cls-3" d="M56.54,40.12A92.81,92.81,0,0,0,48.22,45c-6.08,3.83-6.66,4.86-6.94,5.54-2,4.86,3.12,11.19,4.16,12.48,3.18,3.94,4.56,3,9,7.63,2.8,2.94,5.93,6.21,6.93,11.09.85,4.15-.7,5.3.69,8.32,2.21,4.81,8,6.18,8.32,6.24,5.79,1.28,11.07-2.18,13.17-3.46,9.86-6,22.25-6.27,33.28-9.71C166.45,67.61,257.59,63,257.59,63c167-8.45,271.32,25.34,278.7,29.82,4.3,2.6,6.57,3.12,11.09,4.16,4.18,1,7.35,1.63,9,0s.44-4,0-12.48c-.25-4.67-.38-7,0-8.32,1.29-4.62,4.7-5.44,12.47-12.48,9.21-8.34,9.14-11.46,9-12.48-.34-3-3-5-4.86-6.24-13.36-9.1-29.81-10.4-29.81-10.4-17.48-1.38-4.87-3.63-45.75-10.4C407.61,9.29,349.8,6.84,349.8,6.84s-102-4.32-214.92,13.86c-21.46,3.46-19.58,5.15-43.68,9C91.2,29.72,71.29,32.91,56.54,40.12Z"/><text class="cls-4" transform="translate(98.84 78.02) rotate(-23.62)"> </text><text class="cls-4" transform="matrix(0.93, -0.36, 0.36, 0.93, 105.94, 74.93)"> </text><text class="cls-4" transform="translate(113.24 72.15) rotate(-18.88)"> </text><text class="cls-4" transform="translate(120.67 69.62) rotate(-17.1)"> </text><text class="cls-4" transform="translate(128.24 67.3) rotate(-15.58)"> </text><text class="cls-4" transform="translate(135.49 64.8) rotate(-11.99)">H</text><text class="cls-4" transform="translate(175.38 56.71) rotate(-8.95)">o</text><text class="cls-4" transform="translate(191.03 54.25) rotate(-7.49)">g</text><text class="cls-4" transform="translate(208.2 51.96) rotate(-5.88)">w</text><text class="cls-4" transform="translate(231.93 49.57) rotate(-4.43)">a</text><text class="cls-4" transform="matrix(1, -0.06, 0.06, 1, 249.17, 48.25)">r</text><text class="cls-4" transform="translate(263.87 47.4) rotate(-2.5)">t</text><text class="cls-4" transform="translate(277.36 46.81) rotate(-1.63)">s</text><text class="cls-4" transform="translate(292.62 46.4) rotate(-0.95)"> </text><text class="cls-4" transform="translate(300.56 46.14) rotate(0.25)">S</text><text class="cls-4" transform="translate(334.12 46.41) rotate(1.63)">t</text><text class="cls-4" transform="matrix(1, 0.05, -0.05, 1, 347.58, 46.76)">u</text><text class="cls-4" transform="translate(369.09 47.79) rotate(3.98)">d</text><text class="cls-4" transform="translate(388.21 49.15) rotate(5.13)">e</text><text class="cls-4" transform="translate(402.74 50.43) rotate(6.38)">n</text><text class="cls-4" transform="translate(422.39 52.67) rotate(7.72)">t</text><text class="cls-4" transform="translate(435.72 54.49) rotate(8.83)">l</text><text class="cls-4" transform="translate(447.19 56.27) rotate(9.97)">i</text><text class="cls-4" transform="translate(458.59 58.26) rotate(11.45)">s</text><text class="cls-4" transform="translate(473.38 61.27) rotate(13.29)">t</text><polygon class="cls-5" points="49.66 76.56 52.47 82.82 55.4 90.1 61.53 99.8 71.14 105.82 86.55 105.82 95.23 107.46 104.04 104.91 114.77 103.5 122.68 101.46 131.23 97.95 133.82 95.3 133.82 92.27 132.89 89.46 132.13 87.2 132.13 84.35 132 80.65 130.98 80.39 112.21 85.63 102.62 87.2 91.74 90.1 83.87 93.67 78.51 96.48 73.23 97.95 67.53 96.48 62.43 92.52 60.51 88.56 60.77 82.82 58.85 77.46 56.43 74.78 49.66 76.56"/><path class="cls-5" d="M567,78.48v6.26l-2.76,6.89-4,11.23-14.76,4.88H530.13l-9.79-.28-6.77.64-9.44-1.66-9.19-2-7.41-3.63L485,98l-1.07-2.27a3.14,3.14,0,0,1,.42-.48l1.55-1.44.77-2.68.13-3.83-.13-3.7,1.09-3.43,17.16,4.06L516,88.11l12.26,3.39,7.27,2.17,5.11,2.81L546.26,98l2.89.45,6.66.32,2.7-2.88-1.4-11.1.12-6.74.44-2,6.53,1.73Z"/><path class="cls-6" d="M538.45,78v9.2l1.54,3L546.55,93h5.22V72.93l3.85-8.09,8.52-6.93L568,55.6l2.72-3.43a25.42,25.42,0,0,0-2.72-3.5L560.29,44l-21.84-4.62L511.1,31.1l-27.39-5.54-4.55,4.62,4.55,4.16,29.39,7.39,22.5,4.47,7.74,6-2.66,11.75Z"/><path class="cls-6" d="M211.86,57.49c-4.54.41,0,3.82,0,3.82s109-8.6,188,0c0,0,6.23-1.5,0-3.82S312.46,48.4,211.86,57.49Z"/></g></svg>