<svg xmlns="http://www.w3.org/2000/svg" viewBox="0 0 145.45 170.06"><defs><style>.cls-1{fill:#e9c030;}.cls-2{fill:#e6a114;}.cls-3{fill:#fff;opacity:0.25;}.cls-4{fill:#a33;}.cls-5{fill:#b93a35;}.cls-6{fill:#c47400;}.cls-7{opacity:0.1;}</style></defs><g id="bogstaver"><path class="cls-1" d="M59.52,65.73c-.63.53-1.14.93-1.14.93v-4Z"/></g><g id="Lag_9" data-name="Lag 9"><path class="cls-2" d="M19,24.58a21.63,21.63,0,0,1,2.2-2.7,10.23,10.23,0,0,1,2.65-1.61,29.46,29.46,0,0,0,4.84-3c.56-.44.61-.55,4.41-5.11,3-3.56,3-3.56,3.3-4a46,46,0,0,1,3.08-4.58c1.32-1.63,1.8-1.82,2-1.89,1.31-.45,2.53.45,4.41,1.89a18.54,18.54,0,0,1,4.84,5.12c.71,1.11.87,1.63,2.2,3.77a12.67,12.67,0,0,0,2.21,3A9.79,9.79,0,0,0,58.18,17a30.36,30.36,0,0,0,4.18,1.34c2.27.55,2.36.3,4.19.81,2,.55,3,.83,4,1.62,2,1.65,2.17,3.71,3.52,3.77.55,0,1.1-.44,2.2-1.35,1.34-1.1,1.61-1.74,2.43-2.42s1.93-1,4-1.35c3.38-.63,3.84-.11,6.17-.81A11.42,11.42,0,0,0,92.31,17c.46-.32,1.48-1.09,4-4.31,1.58-2.05,1.51-2.19,3.31-4.58C102.17,4.69,103,4,103.76,3.57a5.38,5.38,0,0,1,3.52-1.08c1.53.18,2.51,1.22,4.41,3.23a33.38,33.38,0,0,1,3.52,4.58c1.35,2,1.26,2.28,2.2,3.5a18.85,18.85,0,0,0,3.75,3.5c2.16,1.64,2.7,1.68,5.5,3.51s4.26,2.77,5.29,4A16.75,16.75,0,0,1,135,31.58,22.09,22.09,0,0,1,135,41c-.45,2.32-1.14,5.91-3.74,8.89-.75.84-3.91,4.45-7.49,3.77-3.11-.6-4.78-4.09-6-3.24-.36.27-.49.81-.66,3.24a61.1,61.1,0,0,0-.22,6.46c.34,6.15.52,9.23.88,11.31,1.47,8.36,5.35,14.14,8.15,18.32,3.93,5.86,5.9,8.79,9.47,11,2.15,1.36,4.24,2.08,5.06,4.58.95,2.87-.4,6.13-1.1,7.81-.56,1.36-1.39,2.9-5.28,7.28-5.08,5.7-5.31,4.91-6.39,7-2.46,4.74-1.51,9.24-3.52,10-1,.36-2.18-.38-3.3-1.07-2-1.22-2.35-2.55-3.31-2.43s-1.53,1.9-2.42,3.77-2.27,3.38-5.06,6.47c-1.65,1.81-3.55,3.19-15.42,8.35-8.59,3.73-9.82,4-11.67,6.19A68.1,68.1,0,0,1,78,164.1c-2.82,2.7-3.62,3-4.41,3-1.65-.11-2.34-1.8-5.06-4.85a59.69,59.69,0,0,0-4.85-4.57c-5.26-4.59-8.7-3.18-15.19-6.74-3.73-2-6.05-3.41-8.15-6.46-1.46-2.13-1.61-3.35-3.52-5.39-2.69-2.87-5.46-3.73-5.29-4.58.14-.62,1.74-.67,1.77-.54A18,18,0,0,0,28,136.36c-1.77,1.28-1.93,2-2.64,1.88-1.2-.21-1.53-2.42-3.74-8.35a25.82,25.82,0,0,0-2-4.58c-1.56-2.43-3.09-3-4.62-4.31-4.57-3.78-7.32-11.93-5.51-15.89a5.72,5.72,0,0,1,2-2.15c3.24-2.66,6-6.13,9-9.16,6.46-6.47,9.75-15.43,9.91-15.89A63.93,63.93,0,0,0,33.3,58.25a30.13,30.13,0,0,0-.22-3.51c-.5-3.67-.71-4-.89-4-.55-.21-1.1,1-2,1.89-2.56,2.62-6.72,1.34-7.48,1.08-4.4-1.5-6.36-6.55-7.27-8.89A25.24,25.24,0,0,1,14.14,33.2c.16-2.26.3-3.94,1.32-5.39S17.19,26.69,19,24.58Z"/><path class="cls-3" d="M19.16,110.66s.17.22.49.6c2.52,3,12.67,10.67,12.66,13.65,0,.33-2.27,1-2.27,1l-.95.06-1,.12-.94-.24L25,123.46s-1.61-4.07-2-4.11-1.23-1.65-1.23-1.65l-1.54-.5a32.83,32.83,0,0,1-1.79-3c-.35-.5-.26-4-.26-4"/><polyline class="cls-3" points="34.58 119.35 33.42 120.55 32.65 121.61 33.62 123.11 35.48 126.12 37.6 129.73 40.37 133.8 43.33 137.56 47.06 141.47 53.8 144.2 56.33 146.26 59.8 148.4 67.22 152.47 72.53 155.57 77.14 156.86 76.27 151.71 35.48 119.35"/><path class="cls-3" d="M131.46,110.06l-.49.59c-2.52,3-12.67,10.68-12.66,13.65,0,.34,2.27,1,2.27,1l1,.06,1,.12.95-.24,2.17-2.41s1.61-4.07,2-4.11,1.23-1.65,1.23-1.65l1.54-.5a30.15,30.15,0,0,0,1.78-3c.36-.51.27-4,.27-4"/><polyline class="cls-3" points="116.85 118.74 118.01 119.95 118.78 121 117.82 122.51 115.95 125.52 113.83 129.13 111.06 133.19 108.11 136.96 104.37 140.87 97.63 143.59 95.1 145.66 91.64 147.79 84.22 151.86 78.91 154.96 74.3 156.25 75.17 151.1 115.95 118.74"/><path class="cls-4" d="M75.65,33.77V155.49l-4.84-3.22-3.92-2-2.23-1.73c-1.82-1.49-3.85-3.23-3.85-3.23l-2-1.49a18.53,18.53,0,0,0-2.23-1.49c-.61-.24-2.43-.74-2.43-.74l-2.23-1-2-1-2.23-1.74-3.85-2.73-1.82-2L40.35,132c-1.83-1.74-5.88-5.21-5.88-5.21l-3.24-.25L28,125.25l-1.22-2.48-1-2a15.55,15.55,0,0,0-2-3.72l-2-2.24a15.11,15.11,0,0,1-2.63-3.91,7.07,7.07,0,0,1,0-2.53l3.24-3.47,4.87-4.71,3.24-3.47,2-3.72,3.65-5.7,1.82-6.2,1-6,1-11.4,1-8.68s-.81-3.72-1-4.46-1.42-4.47-1.42-4.47l-1.21-3.47-1.74-6.13-2.66-3-2.79-2.71-1.81-2.53-1.34-2h0L19.8,22.38l11.54-9,1.9-2.9,2.89-3.09,11.18,8.8,1.95,2.23,2,2.23,4.25,1.73,3.85,1.25,2.23.74,3.24,1.24,4.26,1.24,1.69,2.48,3,3.22Z"/><path class="cls-5" d="M75,33.77V155.49l4.84-3.22,3.92-2L86,148.56c1.82-1.49,3.85-3.23,3.85-3.23l2-1.49a18.53,18.53,0,0,1,2.23-1.49c.61-.24,2.43-.74,2.43-.74l2.24-1,2-1,2.23-1.74,3.86-2.73,1.82-2,1.62-1.23c1.83-1.74,5.88-5.21,5.88-5.21l3.24-.25,3.24-1.24,1.22-2.48,1-2a16,16,0,0,1,2-3.72l2-2.24a28.74,28.74,0,0,0,2.63-3.21,13.73,13.73,0,0,0,0-3.23l-3.24-3.47-4.87-4.71-3.24-3.47-2-3.72-3.65-5.7-1.82-6.2-1-6-1-11.4-1-8.68s.81-3.72,1-4.46,1.42-4.47,1.42-4.47l1.21-3.47,1.74-6.13,2.66-3,2.78-2.71,1.82-2.53,1.34-2h0l7.17-3.95-11.55-9-1.9-2.9-2.89-3.09-11.18,8.8-2,2.23-2,2.23-4.25,1.73-3.85,1.25-2.23.74-3.24,1.24-4.26,1.24-1.69,2.48-3,3.22Z"/><path class="cls-6" d="M119.64,48.61c-.42-.85-.17-2,.36-4.21a17.69,17.69,0,0,1,1.33-4.22,14.13,14.13,0,0,1,2.58-3.67c1.12-1.11,2-2,3.44-2.26a4.3,4.3,0,0,1,3.2.55c1.13.78,1.44,2,1.88,3.77a8.83,8.83,0,0,1,.19,5.1,8.35,8.35,0,0,1-2.25,3.41,11.65,11.65,0,0,1-3.4,2.45c-1.41.66-2.9,1.36-4.66.92A4,4,0,0,1,119.64,48.61Z"/><path class="cls-6" d="M31,47.85c.43-.85.17-2-.36-4.22a18.25,18.25,0,0,0-1.32-4.21,13.47,13.47,0,0,0-2.59-3.67c-1.12-1.12-2-2-3.44-2.27a4.33,4.33,0,0,0-3.19.55c-1.14.79-1.44,2-1.88,3.78A8.8,8.8,0,0,0,18,42.9a8.38,8.38,0,0,0,2.25,3.41,11.45,11.45,0,0,0,3.4,2.45c1.42.67,2.91,1.37,4.66.93A4,4,0,0,0,31,47.85Z"/><polygon class="cls-3" points="26.97 26.33 29.21 29.55 51.13 10.54 49.08 7.62 26.97 26.33"/><polyline class="cls-3" points="26.97 26.33 25.27 25.4 21.04 23.33 21.04 23.33 18.5 26.03 18.96 26.26 21.89 26.98 23.85 28.2 20.26 31.76 24.55 33.29 26.74 31.66 28.84 32.78 31.13 35.73 38.27 50.59 37.87 44.68 35.38 36.6 31.98 32.68 30.13 30.87"/><polygon class="cls-3" points="123.72 26.33 121.48 29.55 99.56 10.54 101.61 7.62 123.72 26.33"/><polyline class="cls-3" points="123.72 26.33 125.41 25.4 129.64 23.33 129.64 23.33 132.18 26.03 131.72 26.26 128.8 26.98 126.84 28.2 130.43 31.76 126.14 33.29 123.94 31.66 121.85 32.78 119.56 35.73 112.41 50.59 112.81 44.68 115.31 36.6 118.71 32.68 120.56 30.87"/><path class="cls-2" d="M99.53,59.59l-1.38-.71L97.1,58l.05-1.29-.49-1.1a2.92,2.92,0,0,1,.81-1.38c.89-.61,1.34-1.14,1.67-1.12l2,.08,1.41.05.69,1.66.37,1.63.44,2.4-.77,3.22-.62,1.82-2,2.62-1.48,1.67L96.1,69.52l-2.4.55-3.24-.13-4.2-.7-4.88-2.58-1.25-1.13-1.79-1.27-1-1.34-1-1c-.52-.67-2.37-.31-2.37-.31l-2.54,1.2-2.87,1.29-2.68,2.27-2.16,2.52L62.23,72l-1.14,4-.91,3.86L60,83.89l-.19,4.75.86,3L62,95.77,64.47,100l2.79,3.36,2.91,3,3.27,2.08,3.5,1.76L81,111l3,.12,2.75-1.08,1.82-2.31.65-5.28.53-5.28V92l0-5L89,82.88l-2.42-1.83-2.7-.33-2.2,1-2,1.54-.93,1.59-.16,1.29L79,87.57l1.16.69,1.22-.81.07-1.73,1.1-.5,2,.41,1.56,1.68.74,3.17L86.62,93l-.74,2-2.09,1-1.2.16.34,2.29,0,3.79-1.07,2.45-3.08,1.06-1.95.25-2.37-.53-1.14-1.12-1.45-1.79-.78-2,2.79.54,2.5-.12.27-1.39s-1.81-3.54-1.91-3.87-2.09-4.52-2.09-4.52l-.67-4.9,1-4.94,1.66-3.62,3.25-2.57,3.52-1.59s2.07-.25,2.4-.23l3.78,0L92,75.09l4.79,4.85,2.6,5.41L100.66,91,100.31,97l-3.67,7.86-3.1,4.54L91,112.73,86.13,116l-4.37,1.12s-7.37,0-7.68-.3-7.6-2.14-7.6-2.14l-5.21-2.49-6.78-6.33L52.22,103l-2.6-5.3-1-3.07L48,91.53l-.42-5.65.23-5.73,1.85-5.77,2.61-5.85,3.22-4.63,4.4-4.48,4-3.09L69,53.61s3.22-2,3.55-2.13,2.52-.88,2.52-.88l1.67-1.12,1.71-2.1,1.1-.39a3,3,0,0,1,1.11,1.89l-.8,1.26,2,.41,1.62.06,1.93,3.22,1.85,2.35,1.44,2,2.42,1.62L93,61.17l3,.33,2,0,1.55-1Z"/><path class="cls-7" d="M97.38,61.59,96,60.89,95,60l0-1.3-.5-1.1a2.91,2.91,0,0,1,.82-1.37c.89-.62,1.34-1.14,1.67-1.13l2.05.08,1.4.06.7,1.65.36,1.64.45,2.4-.78,3.22-.61,1.81-2,2.63L97,70.24,94,71.52l-2.41.56L88.3,72l-4.19-.71-4.88-2.58L78,67.53l-1.79-1.26-1-1.34-1-1c-.52-.67-2.37-.31-2.37-.31l-2.54,1.2-2.87,1.29-2.69,2.28L61.5,70.88,60.07,74l-1.13,4L58,81.79l-.16,4.1-.19,4.76.85,3,1.35,4.16L62.31,102l2.79,3.35,2.91,3,3.28,2.08,3.5,1.77,4.08.81,3,.12,2.75-1.08,1.82-2.31.64-5.28.54-5.28V94l0-5-.81-4.15L84.4,83.05l-2.7-.32-2.2,1-2,1.55-.93,1.58-.16,1.3.48,1.42,1.17.7,1.22-.82.07-1.73,1.1-.49,2,.4L84,89.32l.74,3.17L84.46,95l-.73,2-2.09,1-1.2.17.34,2.29,0,3.78-1.08,2.45-3.07,1.07-2,.25-2.36-.53-1.14-1.13-1.45-1.79-.79-2,2.8.55,2.49-.12.27-1.4s-1.8-3.53-1.9-3.86-2.09-4.52-2.09-4.52l-.67-4.9.95-4.95,1.66-3.61,3.24-2.58,3.53-1.59s2.07-.24,2.39-.23l3.79,0,4.48,1.7,4.79,4.84,2.6,5.41L98.51,93,98.16,99l-3.67,7.87-3.1,4.53-2.52,3.37L84,118l-4.38,1.13s-7.36,0-7.67-.31-7.6-2.14-7.6-2.14l-5.21-2.48-6.78-6.33L50.07,105l-2.6-5.3-1-3.07-.64-3-.43-5.65.23-5.73,1.86-5.77,2.61-5.85,3.22-4.64,4.4-4.48,4-3.09,5.09-2.72s3.22-2,3.55-2.13,2.52-.87,2.52-.87l1.67-1.13,1.71-2.09,1.1-.39a3,3,0,0,1,1.11,1.88l-.81,1.27,2,.4,1.63.07,1.92,3.22,1.86,2.34,1.44,2L89,61.8l1.79,1.37,3,.34,2,0,1.55-1Z"/><path class="cls-3" d="M81.62,146.8,89,142.37l7.71-4.17,8.13-5.21,5-5,3.16-2.2,4-1.89,3.49-2.16,2.89-4.6.19-3.32-1.66-3.26s-2.26-3.62-2.67-4.66-2.74-5.83-2.74-5.83l-1.85-3.13s-3.72-3.75-4-4.38S108,90.69,108,90.69L106,93l2.63,4.17,1.22,3.75.77,4v5.7a4.44,4.44,0,0,1,0,3.26l-.77,2.1-2,2.61L104.84,122l-3.29,2.92L99,127.11l-1.27,2.76-2.48,1.87-1.87,2.09L91.5,135.9c-1.88,1-2.92,1.68-2.92,1.68a5.7,5.7,0,0,1-2.5,1.53,6.82,6.82,0,0,1-2.71,2.64l-2.08,2.71-.83,1.66Z"/></g></svg>