<svg xmlns="http://www.w3.org/2000/svg" viewBox="0 0 143.12 175.43"><defs><style>.cls-1{fill:#e6a114;}.cls-2{fill:#fff;opacity:0.25;}.cls-3{fill:#e5c53c;}.cls-4{fill:#efcc3c;}.cls-5{fill:#c47400;}.cls-6{opacity:0.1;}</style></defs><g id="Lag_10" data-name="Lag 10"><path class="cls-1" d="M15.44,27.46a20.63,20.63,0,0,1,2.2-2.69,10.23,10.23,0,0,1,2.64-1.62,28.48,28.48,0,0,0,4.85-3c.55-.45.61-.56,4.4-5.12,3-3.56,3-3.56,3.3-4a46,46,0,0,1,3.08-4.58c1.33-1.63,1.8-1.82,2-1.88,1.31-.46,2.52.44,4.4,1.88a18.69,18.69,0,0,1,4.85,5.12c.7,1.12.86,1.64,2.2,3.77a12,12,0,0,0,2.2,3,9.69,9.69,0,0,0,3.08,1.62,30.44,30.44,0,0,0,4.19,1.35c2.26.54,2.36.3,4.18.8,2,.56,3,.83,4,1.62,2.06,1.65,2.18,3.71,3.53,3.77.54,0,1.09-.43,2.2-1.34C74,25,74.3,24.38,75.11,23.69s1.94-1,4-1.35c3.39-.63,3.84-.11,6.17-.8a11.49,11.49,0,0,0,3.52-1.62c.46-.32,1.48-1.08,4-4.31,1.57-2,1.5-2.18,3.3-4.58,2.59-3.46,3.46-4.13,4.18-4.58a5.41,5.41,0,0,1,3.53-1.07c1.53.18,2.51,1.22,4.4,3.23a30.76,30.76,0,0,1,3.52,4.58c1.36,2.05,1.26,2.28,2.21,3.5a18.65,18.65,0,0,0,3.74,3.5c2.16,1.63,2.7,1.68,5.5,3.5s4.27,2.77,5.29,4a16.78,16.78,0,0,1,3.08,6.74,21.72,21.72,0,0,1,0,9.42c-.44,2.33-1.13,5.91-3.74,8.89-.74.85-3.9,4.46-7.49,3.77-3.11-.59-4.77-4.09-5.94-3.23-.36.26-.5.8-.66,3.23a61.27,61.27,0,0,0-.22,6.47c.34,6.15.51,9.22.88,11.31,1.47,8.36,5.34,14.14,8.14,18.31,3.94,5.87,5.9,8.8,9.47,11,2.16,1.35,4.24,2.08,5.07,4.58.95,2.87-.41,6.12-1.1,7.81-.57,1.35-1.4,2.9-5.29,7.27-5.08,5.71-5.3,4.92-6.38,7-2.47,4.75-1.51,9.25-3.53,10-1,.35-2.17-.38-3.3-1.08-2-1.21-2.34-2.54-3.3-2.42s-1.54,1.9-2.43,3.77-2.27,3.37-5.06,6.46c-1.64,1.82-3.55,3.19-15.41,8.35-8.59,3.74-9.83,4-11.68,6.2A69,69,0,0,1,74.45,167c-2.81,2.7-3.62,3-4.4,3-1.66-.11-2.35-1.81-5.07-4.85a61.2,61.2,0,0,0-4.84-4.58c-5.26-4.58-8.71-3.17-15.2-6.73-3.72-2-6-3.42-8.14-6.47-1.47-2.13-1.62-3.35-3.53-5.38-2.69-2.87-5.46-3.73-5.28-4.58.13-.63,1.73-.67,1.76-.54a17.52,17.52,0,0,0-5.29,2.42c-1.77,1.28-1.93,2-2.64,1.89-1.2-.21-1.52-2.43-3.74-8.35a24.58,24.58,0,0,0-2-4.58c-1.56-2.44-3.09-3-4.63-4.31C6.9,120.11,4.15,112,6,108a5.78,5.78,0,0,1,2-2.16c3.25-2.66,6-6.12,9-9.16,6.46-6.47,9.74-15.43,9.91-15.89a64,64,0,0,0,2.86-19.66,30.07,30.07,0,0,0-.22-3.5c-.5-3.67-.71-4-.88-4-.56-.22-1.1,1-2,1.88-2.57,2.62-6.73,1.34-7.49,1.08-4.4-1.49-6.36-6.54-7.27-8.89a25.35,25.35,0,0,1-1.32-11.58c.17-2.26.3-3.93,1.32-5.39S13.64,29.58,15.44,27.46Z"/><path class="cls-2" d="M15.61,113.55l.49.59c2.52,3,12.67,10.68,12.67,13.65,0,.34-2.28,1-2.28,1l-.95.06-1,.12-1-.24-2.17-2.41s-1.6-4.07-2-4.11-1.23-1.65-1.23-1.65l-1.54-.5a30.15,30.15,0,0,1-1.78-3c-.36-.51-.26-4-.26-4"/><polyline class="cls-2" points="31.04 122.23 29.88 123.44 29.11 124.49 30.07 126 31.94 129.01 34.06 132.62 36.83 136.68 39.78 140.45 43.52 144.36 50.26 147.08 52.79 149.15 56.25 151.28 63.67 155.35 68.98 158.45 73.59 159.74 72.72 154.59 31.94 122.23"/><path class="cls-2" d="M127.92,112.94l-.5.6c-2.52,3-12.67,10.67-12.66,13.65,0,.33,2.28,1,2.28,1l.95.06,1,.12,1-.24,2.16-2.41s1.61-4.07,2-4.11S125.3,120,125.3,120l1.55-.5a32.1,32.1,0,0,0,1.78-3c.35-.5.26-4,.26-4"/><path class="cls-3" d="M72.1,36.66V158.38l-4.83-3.23-3.92-2-2.23-1.73c-1.82-1.49-3.85-3.23-3.85-3.23l-2-1.48A17.73,17.73,0,0,0,53,145.24c-.61-.24-2.43-.75-2.43-.75l-2.23-1-2-1-2.23-1.73-3.85-2.73-1.82-2-1.62-1.24c-1.83-1.74-5.88-5.21-5.88-5.21l-3.24-.25-3.24-1.23-1.22-2.49-1-2a16.29,16.29,0,0,0-2-3.72l-2-2.23a15.11,15.11,0,0,1-2.63-3.91,7.15,7.15,0,0,1,0-2.54l3.24-3.46,4.87-4.71,3.24-3.48,2-3.71,3.65-5.71L34.36,84l1-6,1-11.4,1-8.68s-.81-3.72-1-4.46S35,49.05,35,49.05l-1.21-3.47L32,39.44l-2.66-3-2.78-2.71-1.82-2.54-1.34-2h0l-7.17-3.95,11.55-9,1.89-2.91,2.89-3.09,11.19,8.8,1.94,2.23,2,2.24L52,25.25l3.85,1.24,2.23.75,3.24,1.23,4.26,1.24,1.69,2.48,3,3.22Z"/><path class="cls-4" d="M71.49,36.66V158.38l4.84-3.23,3.91-2,2.23-1.73c1.83-1.49,3.86-3.23,3.86-3.23l2-1.48a18.53,18.53,0,0,1,2.23-1.49c.61-.24,2.43-.75,2.43-.75l2.23-1,2-1,2.23-1.73,3.85-2.73,1.82-2,1.62-1.24c1.83-1.74,5.88-5.21,5.88-5.21l3.24-.25,3.24-1.23,1.22-2.49,1-2a16.29,16.29,0,0,1,2-3.72l2-2.23a29.16,29.16,0,0,0,2.64-3.22,13.77,13.77,0,0,0,0-3.23l-3.25-3.46L120,103.1l-3.24-3.48-2-3.71-3.65-5.71L109.23,84l-1-6-1-11.4-1-8.68s.81-3.72,1-4.46,1.42-4.46,1.42-4.46l1.21-3.47,1.74-6.14,2.66-3L117,33.76l1.82-2.54,1.34-2h0l7.17-3.95-11.54-9-1.9-2.91L111,10.25l-11.18,8.8-2,2.23-2,2.24L91.6,25.25l-3.85,1.24-2.23.75-3.25,1.23L78,29.71l-1.68,2.48-3,3.22Z"/><path class="cls-5" d="M116.1,51.5c-.43-.85-.17-2,.35-4.22a18.71,18.71,0,0,1,1.33-4.21,13.47,13.47,0,0,1,2.59-3.67c1.12-1.12,2-2,3.43-2.27a4.35,4.35,0,0,1,3.2.55c1.13.79,1.44,2,1.88,3.78a8.8,8.8,0,0,1,.2,5.09A8.38,8.38,0,0,1,126.83,50a11.71,11.71,0,0,1-3.4,2.45c-1.42.67-2.91,1.37-4.66.93A4,4,0,0,1,116.1,51.5Z"/><path class="cls-5" d="M27.4,50.73c.43-.85.18-2-.35-4.21a18.38,18.38,0,0,0-1.33-4.21,13.76,13.76,0,0,0-2.59-3.68,6.53,6.53,0,0,0-3.43-2.26,4.3,4.3,0,0,0-3.2.55c-1.13.78-1.44,2-1.88,3.77a8.83,8.83,0,0,0-.2,5.1,8.45,8.45,0,0,0,2.25,3.41,11.91,11.91,0,0,0,3.4,2.45c1.42.66,2.91,1.36,4.66.92A4,4,0,0,0,27.4,50.73Z"/><polygon class="cls-2" points="23.42 29.22 25.66 32.43 47.58 13.43 45.53 10.51 23.42 29.22"/><polyline class="cls-2" points="23.42 29.22 21.73 28.29 17.5 26.22 17.5 26.22 14.95 28.91 15.42 29.14 18.34 29.87 20.3 31.08 16.71 34.64 21 36.17 23.2 34.54 25.29 35.66 27.58 38.62 34.73 53.48 34.32 47.57 31.83 39.49 28.43 35.56 26.58 33.76"/><polygon class="cls-2" points="120.17 29.22 117.93 32.43 96.01 13.43 98.06 10.51 120.17 29.22"/><polyline class="cls-2" points="120.17 29.22 121.86 28.29 126.1 26.22 126.1 26.22 128.64 28.91 128.18 29.14 125.25 29.87 123.29 31.08 126.88 34.64 122.59 36.17 120.4 34.54 118.3 35.66 116.01 38.62 108.86 53.48 109.27 47.57 111.76 39.49 115.16 35.56 117.01 33.76"/><path class="cls-1" d="M56.09,56.37a10.38,10.38,0,0,0-1.57-2l-2.93-2.25V51H70.94v1.35l-2,1.35v5.86l-.23,16.2L68.92,87l7.65-3.15,3.6-2.48V51l-2.25-1.35L77,48H94.57v2l-1.8,2.7L92.09,55l.23,21.6,2.25-.45,5.4-.68,4.27.9-1.35,1.35-6.07,1.58-4.28,2-.22,20.48-.23,11.92.23,4.73-.23,2,2.48,2.93,1.57,2.25h-1.8l-6.52-1.13a69,69,0,0,1-7.2.23,38.27,38.27,0,0,0-5.18,0l-.22-2.25L79,120.27l1.13-5.85.45-11.93-.45-12.6L69.14,93V105l.23,9.22v2l3.6,2.92.22,1.58-22.72-2v-1.35l4.5-2.7.67-20.92-6.52-2.93-4.95-6.07-2-2.93,2.48-1.35L50,79.32l1.8.9-3.15,1.57-1.58,1.58,1.8,1.8,5.4,3.6,1.13.45Z"/><path class="cls-6" d="M53.92,58.37a10.09,10.09,0,0,0-1.58-2L49.42,54.1V53H68.77v1.35l-2,1.35v5.85l-.22,16.2L66.74,89l7.65-3.15L78,83.35V53l-2.25-1.35-.9-1.57H92.39v2l-1.8,2.7L89.92,57l.22,21.6,2.25-.45,5.4-.67,4.28.9-1.35,1.35-6.08,1.57-4.27,2-.23,20.47-.22,11.93.22,4.72-.22,2,2.47,2.92L94,127.67h-1.8l-6.53-1.12a66.67,66.67,0,0,1-7.2.22,39.85,39.85,0,0,0-5.17,0L73,124.52l3.83-2.25L78,116.42l.45-11.92L78,91.9,67,95.05V107l.22,9.23v2l3.6,2.93.23,1.57-22.73-2v-1.35l4.5-2.7.68-20.93L46.94,92.8,42,86.72,40,83.8l2.47-1.35,5.4-1.13,1.8.9L46.49,83.8l-1.57,1.57,1.8,1.8,5.4,3.6,1.12.45Z"/><path class="cls-2" d="M79.09,147.86l7.37-4.43,7.71-4.16,8.13-5.21,5-5,3.15-2.19,4-1.9,3.49-2.16,2.89-4.6.19-3.32-1.65-3.26S117.1,108,116.68,107s-2.74-5.83-2.74-5.83L112.09,98s-3.71-3.75-4-4.37-2.62-1.88-2.62-1.88l-2,2.29,2.62,4.17,1.23,3.75.77,4v5.7a4.49,4.49,0,0,1,0,3.26l-.77,2.11-2.06,2.6L102.3,123,99,125.93l-2.55,2.24-1.26,2.76-2.49,1.88-1.87,2.08L89,137c-1.87,1.06-2.91,1.68-2.91,1.68a5.75,5.75,0,0,1-2.51,1.53,6.84,6.84,0,0,1-2.7,2.64l-2.09,2.71-.83,1.67Z"/></g></svg>