<svg xmlns="http://www.w3.org/2000/svg" viewBox="0 0 140.96 175.43"><defs><style>.cls-1{fill:#e6a114;}.cls-2{fill:#fff;opacity:0.25;}.cls-3{fill:#0e5777;}.cls-4{fill:#0c5b92;}.cls-5{opacity:0.1;}.cls-6{fill:#c47400;}</style></defs><g id="Lag_7" data-name="Lag 7"><path class="cls-1" d="M15,27.57a21.63,21.63,0,0,1,2.2-2.7,10.23,10.23,0,0,1,2.65-1.61,29.93,29.93,0,0,0,4.84-3c.56-.45.61-.56,4.41-5.12,3-3.56,3-3.56,3.3-4a46,46,0,0,1,3.08-4.58c1.33-1.63,1.8-1.82,2-1.89,1.31-.45,2.53.45,4.41,1.89a18.54,18.54,0,0,1,4.84,5.12c.71,1.11.87,1.63,2.2,3.77a12.67,12.67,0,0,0,2.21,3A9.79,9.79,0,0,0,54.19,20a30.36,30.36,0,0,0,4.18,1.34c2.27.55,2.36.3,4.19.81s3,.83,4,1.62c2,1.65,2.17,3.71,3.52,3.77.55,0,1.1-.44,2.21-1.35,1.33-1.1,1.6-1.74,2.42-2.42s1.93-1,4-1.35c3.38-.63,3.84-.11,6.17-.81A11.42,11.42,0,0,0,88.32,20c.46-.32,1.48-1.09,4-4.31,1.58-2.05,1.51-2.19,3.31-4.58C98.18,7.68,99.05,7,99.77,6.56a5.38,5.38,0,0,1,3.52-1.08c1.53.18,2.51,1.22,4.41,3.23a32.58,32.58,0,0,1,3.52,4.58c1.35,2.05,1.26,2.28,2.2,3.5a19.08,19.08,0,0,0,3.75,3.51c2.16,1.63,2.7,1.68,5.5,3.5s4.26,2.77,5.29,4A16.75,16.75,0,0,1,131,34.57,22.09,22.09,0,0,1,131,44c-.45,2.32-1.14,5.91-3.74,8.89-.75.84-3.91,4.45-7.49,3.77-3.11-.6-4.78-4.09-6-3.24-.36.27-.49.81-.66,3.24a61.1,61.1,0,0,0-.22,6.46c.34,6.15.52,9.23.88,11.31,1.47,8.36,5.35,14.14,8.15,18.32,3.93,5.86,5.9,8.79,9.47,11,2.15,1.36,4.24,2.08,5.06,4.58,1,2.87-.4,6.13-1.1,7.81-.56,1.36-1.39,2.9-5.28,7.28-5.08,5.7-5.31,4.91-6.39,7-2.46,4.74-1.51,9.24-3.52,10-1,.36-2.18-.38-3.3-1.07-2-1.22-2.35-2.55-3.31-2.43s-1.53,1.9-2.42,3.77-2.27,3.38-5.06,6.47c-1.65,1.81-3.55,3.19-15.42,8.35-8.59,3.73-9.82,4-11.67,6.19A68.1,68.1,0,0,1,74,167.09c-2.82,2.7-3.62,3-4.41,3-1.65-.11-2.34-1.8-5.06-4.85a59.69,59.69,0,0,0-4.85-4.57c-5.26-4.59-8.7-3.18-15.19-6.74-3.73-2-6-3.41-8.15-6.46-1.46-2.13-1.61-3.35-3.52-5.39-2.69-2.87-5.46-3.73-5.29-4.58.14-.62,1.74-.67,1.77-.54A18,18,0,0,0,24,139.35c-1.77,1.28-1.93,2-2.64,1.88-1.2-.21-1.53-2.42-3.74-8.35a25.82,25.82,0,0,0-2-4.58c-1.56-2.43-3.09-3-4.62-4.31-4.57-3.77-7.32-11.93-5.51-15.89a5.72,5.72,0,0,1,2-2.15c3.24-2.66,6-6.13,9-9.16C23,90.32,26.28,81.36,26.44,80.9a63.93,63.93,0,0,0,2.87-19.66,30.13,30.13,0,0,0-.22-3.51c-.5-3.66-.71-4-.89-4-.55-.21-1.1,1-2,1.89-2.56,2.62-6.72,1.34-7.48,1.08-4.4-1.5-6.36-6.55-7.27-8.89a25.24,25.24,0,0,1-1.32-11.58c.16-2.26.3-3.93,1.32-5.39S13.2,29.68,15,27.57Z"/><path class="cls-2" d="M15.17,113.65s.17.22.49.6c2.52,3,12.67,10.68,12.66,13.65,0,.33-2.27,1-2.27,1l-.95.06-1,.12-.94-.24L21,126.45s-1.61-4.07-2-4.11-1.23-1.65-1.23-1.65l-1.54-.5a32.83,32.83,0,0,1-1.79-3c-.35-.5-.26-4-.26-4"/><polyline class="cls-2" points="30.59 122.34 29.43 123.54 28.66 124.6 29.63 126.1 31.49 129.11 33.62 132.72 36.38 136.79 39.34 140.55 43.07 144.47 49.81 147.19 52.34 149.25 55.81 151.39 63.23 155.46 68.54 158.56 73.15 159.85 72.28 154.7 31.49 122.34"/><path class="cls-2" d="M127.47,113.05l-.49.59c-2.52,3-12.67,10.68-12.66,13.65,0,.34,2.27,1,2.27,1l1,.06,1,.12,1-.24,2.17-2.41s1.61-4.07,2-4.11,1.23-1.65,1.23-1.65l1.54-.5a30.15,30.15,0,0,0,1.78-3c.36-.51.27-4,.27-4"/><polyline class="cls-2" points="112.86 121.73 114.02 122.94 114.79 123.99 113.83 125.5 111.96 128.51 109.84 132.12 107.07 136.18 104.11 139.95 100.38 143.86 93.64 146.58 91.11 148.65 87.65 150.78 80.23 154.85 74.92 157.95 70.31 159.24 71.18 154.09 111.96 121.73"/><path class="cls-3" d="M71.66,36.76V158.49l-4.84-3.23-3.92-2-2.23-1.73c-1.82-1.49-3.85-3.23-3.85-3.23l-2-1.49a18.53,18.53,0,0,0-2.23-1.49c-.61-.24-2.43-.74-2.43-.74l-2.23-1-2-1-2.23-1.74-3.85-2.72-1.82-2-1.62-1.23c-1.83-1.74-5.88-5.21-5.88-5.21l-3.24-.25L24,128.24l-1.22-2.48-1-2a15.55,15.55,0,0,0-2-3.72l-2-2.23a15.24,15.24,0,0,1-2.63-3.92,7.07,7.07,0,0,1,0-2.53l3.24-3.47,4.87-4.71,3.24-3.47,2-3.72,3.65-5.7,1.82-6.2,1-6,1-11.4,1-8.68s-.81-3.72-1-4.46-1.42-4.47-1.42-4.47l-1.21-3.47-1.74-6.13-2.66-3-2.78-2.71-1.82-2.53-1.34-2h0l-7.17-3.95,11.54-9,1.9-2.9,2.89-3.09,11.18,8.8,2,2.23,2,2.23,4.25,1.73L55.4,26.6l2.23.74,3.24,1.24,4.26,1.24,1.69,2.48,3,3.22Z"/><path class="cls-4" d="M71,36.76V158.49l4.84-3.23,3.92-2L82,151.55c1.82-1.49,3.85-3.23,3.85-3.23l2-1.49a18.53,18.53,0,0,1,2.23-1.49c.61-.24,2.44-.74,2.44-.74l2.23-1,2-1,2.24-1.74,3.85-2.72,1.82-2,1.62-1.23c1.83-1.74,5.88-5.21,5.88-5.21l3.24-.25,3.24-1.24,1.22-2.48,1-2a16,16,0,0,1,2-3.72l2-2.23a29.25,29.25,0,0,0,2.63-3.22,13.77,13.77,0,0,0,0-3.23l-3.24-3.47-4.87-4.71-3.24-3.47-2-3.72-3.65-5.7-1.82-6.2-1-6-1-11.4-1-8.68s.81-3.72,1-4.46,1.42-4.47,1.42-4.47l1.21-3.47,1.74-6.13,2.66-3,2.78-2.71,1.82-2.53,1.34-2h0l7.17-3.95-11.55-9-1.9-2.9-2.89-3.09-11.18,8.8-1.95,2.23-2,2.23-4.25,1.73L87.3,26.6l-2.23.74-3.24,1.24-4.26,1.24L75.88,32.3l-3,3.22Z"/><path class="cls-1" d="M97.85,118.16l-5.62-1.46-6-3.13-6.25-4.79-6.67-8.34-3.55-9.79L68.56,87.6c.79-.66,1.78-1.58,1.78-1.95,0-.63,5.42-6.67,5.42-6.67l3.75-5,1.25-4.37V66.47l-3.13-3.12L75.55,62.1l-2.5,1.25-2.92,4.37L68.68,69.6l-.21,1-.84,4V91.27l.21,5.84-.62,5.2.41,4.38,2.71,2.5,1.67.21.41,1.46L57,121.9l-.22-3.12.63-4.17.62-2.5.21-11.88L58,65H52l9.59-7.29,5.83-5.63h1.67v5l-1,6.87,5.62-6.87,2.71-2.93,1.88.22,4.59,2.49,6,3.76,3.54,2.29L93.26,65l-1,4-3.34,5.42L81.6,82.1l-4.38,4.38L83.68,85l.42,2.29.63,4.59,1.86,7.29,3.34,7.5,3.33,5.42Z"/><path class="cls-5" d="M96.72,121.42,91.1,120l-6-3.13L78.8,112l-6.67-8.33-3.54-9.79-1.15-3.06c.78-.66,1.78-1.57,1.78-2,0-.63,5.42-6.67,5.42-6.67l3.74-5,1.25-4.38V69.74L76.5,66.61l-2.08-1.25-2.49,1.25L69,71l-1.45,1.87-.21,1-.83,4V94.54l.2,5.83-.62,5.21.42,4.37,2.71,2.51,1.66.2.42,1.46-15.42,11L55.67,122l.63-4.16.62-2.51.21-11.87-.21-35.22h-6L60.46,61l5.83-5.62H68v5l-1,6.87,5.63-6.87,2.71-2.92,1.87.21,4.59,2.5,6,3.75,3.54,2.3.84,2.08-1,4-3.34,5.42-7.29,7.71-4.38,4.37,6.46-1.46.42,2.3.63,4.58,2.68,7.29,2.53,7.5,3.33,5.42Z"/><path class="cls-6" d="M115.65,51.6c-.42-.85-.17-2,.36-4.21a17.44,17.44,0,0,1,1.33-4.21,14.06,14.06,0,0,1,2.58-3.68c1.12-1.11,2-2,3.44-2.26a4.3,4.3,0,0,1,3.2.55c1.13.78,1.44,2,1.88,3.77a8.83,8.83,0,0,1,.19,5.1,8.35,8.35,0,0,1-2.25,3.41,11.65,11.65,0,0,1-3.4,2.45c-1.41.66-2.9,1.36-4.66.92A4,4,0,0,1,115.65,51.6Z"/><path class="cls-6" d="M27,50.84c.43-.85.17-2-.36-4.22a18.25,18.25,0,0,0-1.32-4.21,13.47,13.47,0,0,0-2.59-3.67c-1.12-1.12-2-2-3.44-2.27a4.33,4.33,0,0,0-3.19.55c-1.14.79-1.44,2-1.88,3.78a8.8,8.8,0,0,0-.2,5.09,8.38,8.38,0,0,0,2.25,3.41,11.45,11.45,0,0,0,3.4,2.45c1.42.67,2.91,1.37,4.66.93A4,4,0,0,0,27,50.84Z"/><polygon class="cls-2" points="22.98 29.32 25.22 32.54 47.13 13.53 45.09 10.61 22.98 29.32"/><polyline class="cls-2" points="22.98 29.32 21.29 28.39 17.05 26.32 17.05 26.32 14.51 29.02 14.97 29.25 17.89 29.97 19.86 31.18 16.27 34.75 20.56 36.28 22.75 34.65 24.84 35.77 27.14 38.72 34.28 53.58 33.88 47.67 31.39 39.6 27.99 35.67 26.14 33.86"/><polygon class="cls-2" points="119.73 29.32 117.49 32.54 95.57 13.53 97.61 10.61 119.73 29.32"/><polyline class="cls-2" points="119.73 29.32 121.42 28.39 125.65 26.32 125.65 26.32 128.19 29.02 127.73 29.25 124.81 29.97 122.85 31.18 126.44 34.75 122.15 36.28 119.95 34.65 117.86 35.77 115.57 38.72 108.42 53.58 108.83 47.67 111.32 39.6 114.72 35.67 116.57 33.86"/><path class="cls-2" d="M79,147.86l7.38-4.42,7.71-4.17,8.13-5.21,5-5,3.15-2.2,4-1.9,3.49-2.16,2.89-4.6.19-3.31-1.66-3.27S117,108,116.6,107s-2.74-5.84-2.74-5.84L112,98s-3.72-3.75-4.05-4.37-2.62-1.88-2.62-1.88l-2,2.3L106,98.21l1.22,3.75.77,4v5.7a4.46,4.46,0,0,1,0,3.27l-.77,2.1-2.06,2.61L102.22,123l-3.29,2.92-2.55,2.25-1.27,2.75-2.48,1.88-1.88,2.08L88.88,137C87,138,86,138.64,86,138.64a5.7,5.7,0,0,1-2.5,1.53,6.73,6.73,0,0,1-2.71,2.64l-2.08,2.71-.84,1.67Z"/></g></svg>