<svg xmlns="http://www.w3.org/2000/svg" viewBox="0 0 136.35 170.06"><defs><style>.cls-1{fill:#e6a114;}.cls-2{fill:#fff;opacity:0.25;}.cls-3{fill:#036031;}.cls-4{fill:#026737;}.cls-5{fill:#c47400;}.cls-6{opacity:0.1;}</style></defs><g id="Lag_8" data-name="Lag 8"><path class="cls-1" d="M11.07,25.64a21.63,21.63,0,0,1,2.2-2.7,10.23,10.23,0,0,1,2.65-1.61,29.46,29.46,0,0,0,4.84-3c.55-.44.61-.55,4.4-5.11,3-3.57,3-3.56,3.31-4a44.33,44.33,0,0,1,3.08-4.58c1.32-1.63,1.8-1.83,2-1.89,1.31-.45,2.53.45,4.41,1.89a18.62,18.62,0,0,1,4.84,5.11c.7,1.12.86,1.64,2.2,3.78a13.12,13.12,0,0,0,2.2,3,10,10,0,0,0,3.09,1.61,29.47,29.47,0,0,0,4.18,1.35c2.27.55,2.36.3,4.18.81a10.21,10.21,0,0,1,4,1.61c2.05,1.65,2.17,3.71,3.52,3.78.54,0,1.1-.44,2.2-1.35,1.33-1.1,1.61-1.74,2.43-2.43s1.93-1,4-1.34c3.38-.63,3.84-.11,6.16-.81a11.29,11.29,0,0,0,3.53-1.62c.46-.32,1.48-1.08,4-4.31,1.57-2,1.51-2.18,3.3-4.57,2.6-3.46,3.46-4.14,4.19-4.58a5.38,5.38,0,0,1,3.52-1.08c1.53.18,2.51,1.22,4.41,3.23a33.38,33.38,0,0,1,3.52,4.58c1.35,2.05,1.25,2.28,2.2,3.5a18.65,18.65,0,0,0,3.74,3.5C115.4,20,116,20,118.75,21.86S123,24.64,124,25.91a16.61,16.61,0,0,1,3.09,6.73,22.09,22.09,0,0,1,0,9.43C126.67,44.39,126,48,123.37,51c-.74.85-3.9,4.46-7.48,3.78-3.12-.6-4.78-4.09-6-3.24-.36.27-.49.81-.66,3.24a61.1,61.1,0,0,0-.22,6.46c.34,6.15.51,9.22.88,11.31,1.47,8.36,5.35,14.14,8.15,18.32,3.93,5.86,5.9,8.79,9.47,11,2.15,1.36,4.23,2.08,5.06,4.58.95,2.87-.4,6.13-1.1,7.81-.56,1.36-1.39,2.9-5.28,7.27-5.08,5.71-5.31,4.92-6.39,7-2.46,4.74-1.51,9.24-3.52,10-1,.36-2.18-.38-3.31-1.07-2-1.22-2.34-2.55-3.3-2.43s-1.53,1.9-2.42,3.77-2.27,3.38-5.07,6.47c-1.64,1.81-3.54,3.18-15.41,8.35-8.59,3.73-9.83,4-11.67,6.19a69.12,69.12,0,0,1-5.07,5.39c-2.81,2.7-3.61,3-4.4,3-1.66-.11-2.34-1.8-5.06-4.85a63,63,0,0,0-4.85-4.58c-5.26-4.58-8.7-3.17-15.19-6.73-3.73-2-6-3.41-8.15-6.46-1.46-2.13-1.61-3.35-3.52-5.39-2.69-2.87-5.47-3.73-5.29-4.58.13-.63,1.74-.67,1.76-.54a18.06,18.06,0,0,0-5.28,2.43c-1.77,1.28-1.93,2-2.64,1.88-1.2-.21-1.53-2.42-3.75-8.35a25,25,0,0,0-2-4.58c-1.56-2.44-3.09-3-4.62-4.31-4.57-3.78-7.33-11.93-5.51-15.89a5.77,5.77,0,0,1,2-2.15c3.25-2.66,6-6.13,9-9.16,6.46-6.48,9.75-15.43,9.91-15.89A63.79,63.79,0,0,0,25.38,59.3a30.07,30.07,0,0,0-.22-3.5c-.5-3.67-.7-4-.88-4-.55-.21-1.1,1-2,1.89-2.57,2.61-6.72,1.34-7.49,1.08-4.39-1.5-6.35-6.55-7.26-8.89A25.27,25.27,0,0,1,6.23,34.25c.16-2.25.3-3.93,1.32-5.38S9.28,27.75,11.07,25.64Z"/><path class="cls-2" d="M11.24,111.72l.5.6c2.52,3,12.67,10.67,12.66,13.65,0,.33-2.28,1-2.28,1l-.94.06-1,.12-.95-.24-2.16-2.4s-1.61-4.07-2-4.11-1.23-1.65-1.23-1.65l-1.55-.51a31,31,0,0,1-1.78-3c-.35-.5-.26-4-.26-4"/><polyline class="cls-2" points="26.67 120.41 25.51 121.61 24.74 122.67 25.7 124.17 27.57 127.18 29.69 130.79 32.46 134.86 35.42 138.62 39.15 142.53 45.89 145.25 48.42 147.32 51.89 149.46 59.3 153.53 64.62 156.63 69.23 157.92 68.35 152.77 27.57 120.41"/><path class="cls-2" d="M123.55,111.12l-.49.59c-2.52,3.05-12.67,10.68-12.67,13.65,0,.34,2.28,1,2.28,1l1,.06,1,.12,1-.24,2.17-2.41s1.6-4.07,2-4.11,1.23-1.65,1.23-1.65l1.54-.5a28.89,28.89,0,0,0,1.78-3c.36-.5.26-4,.26-4"/><polyline class="cls-2" points="108.94 119.8 110.1 121.01 110.87 122.06 109.91 123.56 108.04 126.58 105.92 130.19 103.15 134.25 100.19 138.01 96.46 141.93 89.72 144.65 87.19 146.72 83.73 148.85 76.31 152.92 70.99 156.02 66.39 157.31 67.26 152.16 108.04 119.8"/><path class="cls-3" d="M67.74,34.83V156.55l-4.84-3.22-3.92-2-2.23-1.74c-1.82-1.48-3.85-3.22-3.85-3.22l-2-1.49a18.53,18.53,0,0,0-2.23-1.49c-.61-.24-2.43-.74-2.43-.74l-2.23-1-2-1L39.73,139l-3.85-2.73-1.82-2L32.44,133c-1.83-1.73-5.89-5.2-5.89-5.2l-3.24-.25-3.24-1.24-1.22-2.48-1-2a16,16,0,0,0-2-3.72l-2-2.24A15.11,15.11,0,0,1,11.15,112a7.07,7.07,0,0,1,0-2.53L14.39,106l4.87-4.71L22.5,97.8l2-3.72,3.65-5.71L30,82.18l1-6,1-11.4,1-8.68s-.81-3.72-1-4.47-1.42-4.46-1.42-4.46l-1.22-3.47-1.74-6.13-2.66-3-2.78-2.71L20.39,29.4l-1.34-2h0l-7.16-3.95,11.54-9,1.9-2.9,2.89-3.09,11.18,8.8,2,2.23,2,2.23,4.25,1.73,3.85,1.25,2.23.74L57,26.65l4.26,1.24,1.69,2.48,3,3.22Z"/><path class="cls-4" d="M67.12,34.83V156.55L72,153.33l3.92-2,2.23-1.74c1.82-1.48,3.85-3.22,3.85-3.22l2-1.49a18.53,18.53,0,0,1,2.23-1.49c.61-.24,2.43-.74,2.43-.74l2.23-1,2-1L95.13,139,99,136.22l1.83-2,1.62-1.24c1.82-1.73,5.88-5.2,5.88-5.2l3.24-.25,3.24-1.24,1.22-2.48,1-2a16,16,0,0,1,2-3.72l2-2.24a28.13,28.13,0,0,0,2.63-3.22,13.66,13.66,0,0,0,0-3.22L120.47,106l-4.87-4.71-3.24-3.47-2-3.72-3.65-5.71-1.83-6.19-1-6-1-11.4-1-8.68s.81-3.72,1-4.47,1.42-4.46,1.42-4.46l1.22-3.47,1.74-6.13,2.66-3,2.78-2.71,1.82-2.53,1.34-2h0L123,23.44l-11.54-9-1.9-2.9-2.89-3.09-11.18,8.8-1.95,2.23-2,2.23-4.25,1.73-3.85,1.25-2.23.74-3.24,1.24-4.26,1.24L72,30.37l-3,3.22Z"/><path class="cls-5" d="M111.73,49.67c-.43-.85-.17-2,.36-4.21a18.19,18.19,0,0,1,1.32-4.22A13.83,13.83,0,0,1,116,37.57a6.53,6.53,0,0,1,3.44-2.26,4.26,4.26,0,0,1,3.2.55c1.13.78,1.43,2,1.87,3.77a8.83,8.83,0,0,1,.2,5.1,8.34,8.34,0,0,1-2.25,3.4,11.53,11.53,0,0,1-3.4,2.46c-1.42.66-2.91,1.36-4.66.92A4,4,0,0,1,111.73,49.67Z"/><path class="cls-5" d="M23,48.91c.43-.85.17-2-.36-4.22a18.25,18.25,0,0,0-1.32-4.21,13.47,13.47,0,0,0-2.59-3.67c-1.12-1.12-2-2-3.44-2.27a4.36,4.36,0,0,0-3.2.55c-1.13.79-1.43,2-1.88,3.78A8.8,8.8,0,0,0,10.06,44a8.38,8.38,0,0,0,2.25,3.41,11.45,11.45,0,0,0,3.4,2.45c1.42.67,2.91,1.37,4.66.93A4,4,0,0,0,23,48.91Z"/><polygon class="cls-2" points="19.05 27.39 21.3 30.61 43.21 11.6 41.17 8.68 19.05 27.39"/><polyline class="cls-2" points="19.05 27.39 17.36 26.46 13.13 24.39 13.13 24.39 10.59 27.09 11.05 27.32 13.97 28.04 15.94 29.25 12.35 32.82 16.64 34.35 18.83 32.72 20.92 33.84 23.22 36.79 30.36 51.65 29.96 45.74 27.46 37.66 24.07 33.74 22.21 31.93"/><polygon class="cls-2" points="115.81 27.39 113.56 30.61 91.65 11.6 93.69 8.68 115.81 27.39"/><polyline class="cls-2" points="115.81 27.39 117.5 26.46 121.73 24.39 121.73 24.39 124.27 27.09 123.81 27.32 120.89 28.04 118.92 29.25 122.51 32.82 118.23 34.35 116.03 32.72 113.94 33.84 111.64 36.79 104.5 51.65 104.9 45.74 107.4 37.66 110.8 33.74 112.65 31.93"/><path class="cls-1" d="M83.28,60.41l1-1.19a2.77,2.77,0,0,0,0-1.79H82.69c-.75-1.19-1.19-2.09-1.19-2.09a18.84,18.84,0,0,0-.6-2.23,7.93,7.93,0,0,1,1.78-1.94,4.75,4.75,0,0,1,1.78-1h1.21c1.19.74,2.09,1.19,2.09,1.19A11.8,11.8,0,0,1,89.1,54.6v3.87l-1,2.84L85,64l-3.35,1.64L76.88,67l-3.43.9-4-.9-4-1.19a31.88,31.88,0,0,1-3-1.19c-.45-.3-3.13-1.94-3.13-1.94l-.9-.45-.89,2.24v8.34L59,75.62l2.38,4,1.94,1.49,1.94,1.49h1.64l3-3.13L73.3,77l3.43-.9,3.72-.14,3.73.89,3.58,4.32,1.34,5.52V94.1L86.27,101l-3.73,4.32-6.11,4.77L73.3,112l-2.54,3.87-1.64,2.39-4.77-6.71-5.81-7.45-3.73-1.94L52,101.26,49.3,102.9l-1,2.83.74,1,2.24-.45L53.32,108v3.58l-2.08,1.79-3-.6a17.3,17.3,0,0,1-3-1.79c-.29-.44-1.49-3.72-1.49-3.72l1.79-4.62,2.83-4,4.48-3.87,4.92-1.64,4.47.15,3.13,1.93,2.23,2.24,3,4,3.13,2.69,1.5,1.19,1.19-2.53L77.17,99V94.7l-.29-3.88L74.94,88,73,86.5l-2.68.15s-2.09.89-2.54,1-4,1.19-4,1.19H55.11S52,87.54,51.53,87.39a12.24,12.24,0,0,1-2.68-2.08c-.3-.45-1.64-1.49-1.79-1.94s-1.34-2.83-1.34-2.83-.3-2.54-.45-3S45,74.28,45,74.28l1.34-4.77,2.08-3.73,2.69-4L55.41,57l4.47-4.17,2.24-1.94.89-.74,1.34-1.49a4.28,4.28,0,0,1,2.09,2.23l1,1.49,3.88,3,4.62,3,3.13,1.34,2.09.74Z"/><path class="cls-6" d="M83.17,64.28l1-1.2a2.77,2.77,0,0,0,0-1.79H82.58c-.75-1.19-1.19-2.08-1.19-2.08a18.64,18.64,0,0,0-.6-2.24A7.93,7.93,0,0,1,82.57,55a4.75,4.75,0,0,1,1.78-1h1.21c1.19.75,2.09,1.19,2.09,1.19A11.8,11.8,0,0,1,89,58.46v3.88l-1,2.83-3,2.68-3.36,1.64-4.77,1.34-3.42.9-4-.9-4-1.19a29.32,29.32,0,0,1-3-1.19c-.45-.3-3.13-1.94-3.13-1.94l-.9-.45-.89,2.24v8.35l1.49,2.83,2.38,4L63.2,85l1.94,1.49h1.64l3-3.13,3.43-2.54,3.43-.89,3.72-.15,3.73.89L87.65,85,89,90.51V98l-2.83,6.86-3.73,4.32-6.11,4.77-3.13,1.94-2.54,3.88L69,122.11l-4.77-6.71L58.43,108,54.7,106l-2.83-.89-2.68,1.64-1,2.83.75,1,2.24-.44,2.08,1.64v3.57l-2.08,1.79-3-.59a17.93,17.93,0,0,1-3-1.79c-.29-.45-1.49-3.73-1.49-3.73l1.79-4.62,2.83-4,4.48-3.88,4.91-1.64,4.48.15L65.29,99l2.23,2.23,3,4L73.63,108l1.49,1.19,1.2-2.53.74-3.73V98.56l-.3-3.88-1.93-2.83-1.94-1.49-2.68.15s-2.09.9-2.54,1-4,1.2-4,1.2H55s-3.13-1.34-3.58-1.49a12,12,0,0,1-2.68-2.09c-.3-.45-1.64-1.49-1.79-1.94s-1.34-2.83-1.34-2.83-.3-2.53-.45-3a32.58,32.58,0,0,1-.29-3.28l1.34-4.77,2.08-3.73,2.69-4,4.32-4.77,4.47-4.18L62,54.74,62.9,54l1.34-1.49a4.37,4.37,0,0,1,2.09,2.24l1,1.49,3.88,3,4.62,3L79,63.53l2.09.75Z"/><path class="cls-2" d="M75.08,147.18l7.38-4.43,7.71-4.16,8.12-5.21,5-5,3.15-2.19,4-1.9,3.5-2.16,2.89-4.6.19-3.32-1.66-3.26s-2.26-3.61-2.68-4.66-2.73-5.83-2.73-5.83l-1.85-3.13s-3.72-3.75-4-4.37-2.62-1.88-2.62-1.88l-2,2.29,2.63,4.17,1.22,3.75.77,4v5.7a4.43,4.43,0,0,1,0,3.26l-.77,2.1-2.06,2.61-2.92,3.42L95,125.25l-2.54,2.24-1.27,2.76-2.48,1.88-1.88,2.08L85,136.28C83.08,137.34,82,138,82,138a5.7,5.7,0,0,1-2.5,1.53,6.82,6.82,0,0,1-2.71,2.64l-2.08,2.71-.84,1.66Z"/></g></svg>